<svg width="350" height="237" viewBox="0 0 350 237" fill="none" xmlns="http://www.w3.org/2000/svg">
<g filter="url(#filter0_d_132_252)">
<rect x="4" y="64.2635" width="311.315" height="165.319" transform="rotate(-6.85245 4 64.2635)" fill="#22C7FF"/>
<rect x="5.11217" y="65.137" width="309.315" height="163.319" transform="rotate(-6.85245 5.11217 65.137)" stroke="black" stroke-width="2"/>
</g>
<rect x="18.7901" y="54.6997" width="309.315" height="163.319" transform="rotate(-8.09738 18.7901 54.6997)" fill="#179AC6" stroke="black" stroke-width="2"/>
<rect x="7.79007" y="44.6997" width="309.315" height="163.319" transform="rotate(-8.09738 7.79007 44.6997)" fill="#22C7FF" stroke="black" stroke-width="2"/>
<path d="M72.7643 115.644C72.7892 115.379 72.8884 115.15 73.0618 114.956C73.2332 114.748 73.4171 114.63 73.6135 114.603C73.8251 114.573 73.989 114.589 74.1052 114.65C74.2366 114.709 74.314 114.767 74.3375 114.826C74.3761 114.882 74.421 114.984 74.4721 115.131C74.5446 116.322 74.6468 117.394 74.7786 118.346C74.9084 119.283 75.1713 120.347 75.5675 121.54C75.9616 122.718 76.2946 123.288 76.5666 123.25C76.9746 123.193 77.4571 122.896 78.0139 122.356C78.5858 121.815 78.9733 121.276 79.1763 120.74C78.6936 118.589 78.3445 116.735 78.129 115.179C78.0851 114.861 78.1456 114.576 78.3107 114.322C78.4909 114.066 78.7245 113.918 79.0117 113.878C79.4802 113.813 79.7583 114.098 79.8462 114.733C79.9948 115.806 80.2911 117.39 80.7351 119.485C81.1943 121.577 81.5468 122.899 81.7925 123.45C81.8395 123.567 81.8745 123.709 81.8975 123.875C81.9184 124.026 81.8325 124.184 81.6398 124.35C81.4642 124.528 81.2102 124.64 80.8778 124.686C80.5604 124.73 80.3237 124.578 80.1677 124.23C80.0956 123.932 79.9573 123.489 79.7527 122.901C78.8476 124.151 77.8586 124.85 76.7856 124.999C76.2869 125.068 75.815 124.94 75.3697 124.617C74.9245 124.294 74.5436 123.823 74.2269 123.204C73.6603 122.004 73.3007 120.853 73.1479 119.75C72.9952 118.646 72.8673 117.278 72.7643 115.644ZM84.5243 123.927C84.1314 123.981 83.8668 123.795 83.7306 123.367C83.3079 120.314 82.75 117.619 82.0567 115.282C82.0148 114.979 82.0829 114.693 82.261 114.422C82.4542 114.149 82.6868 113.993 82.9589 113.955C83.246 113.916 83.4795 114.045 83.6595 114.344C84.1161 113.526 84.8129 113.052 85.7498 112.922C86.9437 112.757 87.9451 113.203 88.7539 114.262C89.3588 113.069 90.2809 112.387 91.5201 112.216C92.7744 112.042 93.7804 112.411 94.5381 113.323C95.0319 113.886 95.432 114.662 95.7385 115.651C96.0449 116.641 96.3268 118.065 96.5842 119.924C96.6846 120.649 96.6875 121.226 96.5929 121.655C96.4961 122.069 96.206 122.31 95.7224 122.377C95.3295 122.431 95.0985 122.209 95.0295 121.71L94.7051 118.867C94.2344 115.467 93.1149 113.889 91.3468 114.134C90.7876 114.211 90.4219 114.462 90.2496 114.887C90.0576 115.391 89.9745 115.903 90.0003 116.423C90.0654 117.338 90.1492 118.166 90.2517 118.906L90.7068 122.193C90.7403 122.435 90.6476 122.656 90.4289 122.855C90.2101 123.055 89.9722 123.173 89.7153 123.208C89.3829 123.254 89.141 123.064 88.9896 122.639L88.4079 117.937C88.1778 116.275 87.7549 115.278 87.1392 114.948C86.84 114.789 86.4108 114.748 85.8517 114.826C85.3076 114.901 84.9279 115.161 84.7123 115.607C84.5119 116.051 84.4745 116.726 84.6 117.633L85.3198 121.83C85.4998 123.13 85.2346 123.829 84.5243 123.927ZM102.809 115.966C102.669 114.954 102.806 113.995 103.219 113.091C103.648 112.184 104.25 111.47 105.025 110.946C105.797 110.408 106.577 110.085 107.362 109.976C108.148 109.867 108.789 109.879 109.285 110.01C109.793 110.125 110.07 110.34 110.114 110.658C110.155 110.96 110.108 111.282 109.97 111.625C109.846 111.95 109.64 112.133 109.353 112.172C109.247 112.187 108.941 112.145 108.434 112.045C107.941 111.929 107.626 111.88 107.49 111.899C106.614 112.02 105.91 112.449 105.381 113.184C104.849 113.905 104.657 114.794 104.803 115.852C104.949 116.91 105.226 117.68 105.631 118.163C106.05 118.629 106.675 118.804 107.506 118.689C107.839 118.643 108.379 118.375 109.128 117.887C109.889 117.381 110.368 117.114 110.565 117.087C110.761 117.06 110.928 117.098 111.066 117.203C111.204 117.307 111.285 117.449 111.31 117.631C111.36 117.993 111.179 118.411 110.768 118.884C110.369 119.34 109.848 119.751 109.205 120.117C108.561 120.468 107.967 120.681 107.423 120.757C106.214 120.924 105.196 120.58 104.369 119.724C103.557 118.866 103.037 117.613 102.809 115.966ZM117.508 108.548C118.173 108.456 118.584 108.977 118.741 110.11C118.757 110.231 118.775 110.359 118.794 110.496L118.968 112.089C119.022 112.589 119.083 113.082 119.15 113.565L120.199 118.641C120.251 119.019 119.892 119.261 119.121 119.368C119.076 119.374 118.963 119.39 118.781 119.415C118.615 119.438 118.485 119.387 118.39 119.261C118.311 119.133 118.281 118.968 118.299 118.766C118.332 118.561 118.286 118.344 118.162 118.114C117.57 118.951 116.699 119.449 115.551 119.608C113.42 119.903 112.126 118.403 111.67 115.109C111.417 113.28 111.566 111.851 112.116 110.819C112.681 109.786 113.606 109.181 114.891 109.003C115.495 108.919 116.114 108.941 116.748 109.069C116.907 108.77 117.16 108.596 117.508 108.548ZM115.436 110.937C114.574 111.057 113.967 111.395 113.613 111.952C113.259 112.509 113.174 113.453 113.358 114.783C113.667 117.02 114.427 118.054 115.636 117.887C115.953 117.843 116.281 117.651 116.619 117.312C116.972 116.97 117.199 116.608 117.3 116.224C117.474 115.368 117.494 114.457 117.36 113.489C117.226 112.522 117.008 111.836 116.706 111.432C116.418 111.025 115.995 110.86 115.436 110.937ZM120.844 111.02C120.721 110.129 120.94 109.374 121.501 108.758C122.063 108.141 122.759 107.775 123.59 107.66C124.436 107.543 125.266 107.582 126.078 107.777C126.891 107.973 127.332 108.32 127.401 108.819C127.436 109.076 127.366 109.293 127.191 109.471C127.015 109.65 126.852 109.749 126.701 109.77C126.565 109.789 126.452 109.805 126.361 109.817C126.283 109.813 125.961 109.711 125.395 109.512C124.843 109.311 124.348 109.241 123.91 109.302C123.472 109.363 123.11 109.528 122.824 109.799C122.551 110.052 122.443 110.391 122.502 110.814C122.561 111.237 122.78 111.545 123.162 111.739C123.558 111.931 124.214 112.055 125.131 112.113C126.046 112.156 126.759 112.304 127.271 112.556C127.799 112.807 128.122 113.362 128.242 114.224C128.415 115.478 128.206 116.416 127.615 117.037C127.036 117.641 126.278 118.007 125.341 118.137C124.404 118.267 123.585 118.249 122.885 118.084C122.2 117.917 121.821 117.577 121.75 117.063C121.669 116.474 121.922 116.138 122.512 116.057C122.663 116.036 123.01 116.096 123.553 116.236C124.096 116.376 124.617 116.412 125.116 116.343C125.63 116.272 125.993 116.06 126.206 115.707C126.432 115.337 126.516 114.94 126.457 114.517C126.399 114.094 126.183 113.816 125.81 113.683C125.435 113.534 124.885 113.449 124.158 113.426C123.431 113.404 122.891 113.347 122.54 113.257C121.583 113.02 121.018 112.275 120.844 111.02ZM135.107 106.111C135.771 106.019 136.182 106.54 136.339 107.673C136.356 107.794 136.374 107.923 136.393 108.059L136.567 109.652C136.621 110.153 136.681 110.645 136.748 111.128L137.798 116.204C137.85 116.582 137.491 116.824 136.72 116.931C136.675 116.937 136.561 116.953 136.38 116.978C136.214 117.001 136.084 116.95 135.989 116.824C135.91 116.697 135.879 116.532 135.897 116.329C135.931 116.124 135.885 115.907 135.761 115.678C135.168 116.514 134.298 117.012 133.149 117.171C131.019 117.466 129.725 115.967 129.269 112.672C129.016 110.844 129.164 109.414 129.715 108.383C130.28 107.35 131.205 106.744 132.49 106.566C133.094 106.482 133.713 106.505 134.347 106.632C134.506 106.333 134.759 106.16 135.107 106.111ZM133.035 108.501C132.173 108.62 131.566 108.958 131.211 109.515C130.857 110.073 130.772 111.016 130.957 112.346C131.266 114.583 132.026 115.617 133.234 115.45C133.552 115.406 133.88 115.214 134.218 114.875C134.571 114.533 134.798 114.171 134.899 113.787C135.073 112.931 135.093 112.02 134.959 111.053C134.825 110.086 134.607 109.4 134.304 108.995C134.017 108.588 133.594 108.423 133.035 108.501ZM137.026 101.687C136.992 101.107 137.031 100.724 137.144 100.539C137.27 100.336 137.492 100.213 137.809 100.169C138.459 100.079 138.821 100.299 138.894 100.828C138.95 101.236 139.06 102.307 139.223 104.04C139.401 105.771 139.584 107.317 139.773 108.677C139.961 110.037 140.166 111.125 140.387 111.942C140.769 113.367 141.126 114.057 141.459 114.011C141.791 113.965 142.008 113.696 142.109 113.205C142.16 113.013 142.259 112.837 142.406 112.678C142.551 112.504 142.752 112.399 143.009 112.364C143.538 112.291 143.865 112.7 143.988 113.591C144.055 114.075 143.857 114.595 143.395 115.152C142.946 115.692 142.465 115.997 141.951 116.068C141.437 116.139 141.01 116.114 140.67 115.991C140.343 115.852 140.057 115.622 139.812 115.302C139.583 114.979 139.385 114.668 139.221 114.367C139.069 114.049 138.938 113.659 138.828 113.197C138.632 112.454 138.397 111.254 138.121 109.598C137.859 107.925 137.623 106.333 137.414 104.822C137.203 103.295 137.073 102.251 137.026 101.687ZM152.181 103.84C152.982 103.729 153.778 103.857 154.568 104.225C155.358 104.593 155.802 105.125 155.898 105.82C155.992 106.5 155.789 107.206 155.29 107.937C154.789 108.654 154.056 109.148 153.093 109.42C152.678 109.539 152.047 109.657 151.201 109.774C151.545 111.036 151.987 111.837 152.527 112.178C152.701 112.323 152.917 112.378 153.174 112.343C154.111 112.213 154.856 111.809 155.409 111.132C155.96 110.44 156.371 110.075 156.643 110.037C156.764 110.02 156.961 110.109 157.235 110.302C157.508 110.495 157.658 110.69 157.685 110.886C157.74 111.279 157.342 111.912 156.492 112.784C156.117 113.19 155.644 113.556 155.073 113.882C154.515 114.19 153.98 114.38 153.466 114.451C152.151 114.633 151.067 113.921 150.213 112.314C149.675 111.325 149.32 110.204 149.146 108.95C148.973 107.695 149.118 106.574 149.581 105.586C150.045 104.598 150.912 104.015 152.181 103.84ZM152.511 105.388C151.937 105.468 151.491 105.861 151.173 106.567C151.053 106.814 150.981 107.348 150.955 108.168C153.071 107.875 154.057 107.207 153.912 106.164C153.825 105.53 153.358 105.271 152.511 105.388ZM160.697 113.38C160.304 113.435 160.04 113.248 159.904 112.82C159.481 109.768 158.923 107.072 158.23 104.735C158.188 104.433 158.256 104.146 158.434 103.875C158.627 103.602 158.86 103.446 159.132 103.409C159.419 103.369 159.653 103.498 159.833 103.797C160.289 102.979 160.986 102.505 161.923 102.375C163.117 102.21 164.118 102.657 164.927 103.715C165.532 102.523 166.454 101.84 167.693 101.669C168.947 101.495 169.953 101.864 170.711 102.776C171.205 103.339 171.605 104.115 171.912 105.105C172.218 106.094 172.5 107.518 172.757 109.377C172.858 110.102 172.861 110.68 172.766 111.109C172.669 111.522 172.379 111.763 171.895 111.83C171.503 111.884 171.272 111.662 171.202 111.163L170.878 108.32C170.407 104.92 169.288 103.342 167.52 103.587C166.961 103.665 166.595 103.916 166.423 104.34C166.231 104.844 166.148 105.356 166.173 105.876C166.238 106.791 166.322 107.619 166.425 108.359L166.88 111.646C166.913 111.888 166.821 112.109 166.602 112.309C166.383 112.508 166.145 112.626 165.888 112.662C165.556 112.708 165.314 112.518 165.163 112.092L164.581 107.39C164.351 105.728 163.928 104.732 163.312 104.401C163.013 104.242 162.584 104.201 162.025 104.279C161.481 104.354 161.101 104.615 160.885 105.06C160.685 105.504 160.648 106.179 160.773 107.086L161.493 111.283C161.673 112.583 161.408 113.282 160.697 113.38ZM178.645 100.984C178.67 100.719 178.769 100.49 178.943 100.296C179.114 100.088 179.298 99.9697 179.494 99.9425C179.706 99.9132 179.87 99.929 179.986 99.9899C180.117 100.049 180.195 100.107 180.218 100.166C180.257 100.222 180.302 100.324 180.353 100.471C180.425 101.662 180.528 102.733 180.659 103.686C180.789 104.622 181.052 105.687 181.448 106.88C181.842 108.058 182.175 108.628 182.447 108.59C182.855 108.533 183.338 108.236 183.895 107.696C184.467 107.155 184.854 106.616 185.057 106.08C184.574 103.929 184.225 102.075 184.01 100.519C183.966 100.201 184.026 99.9157 184.191 99.6618C184.372 99.4058 184.605 99.2579 184.892 99.2182C185.361 99.1533 185.639 99.4382 185.727 100.073C185.876 101.146 186.172 102.73 186.616 104.825C187.075 106.917 187.428 108.239 187.673 108.79C187.72 108.907 187.755 109.049 187.778 109.215C187.799 109.366 187.713 109.524 187.52 109.689C187.345 109.868 187.091 109.98 186.758 110.026C186.441 110.07 186.204 109.918 186.048 109.57C185.976 109.272 185.838 108.829 185.633 108.241C184.728 109.491 183.739 110.19 182.666 110.338C182.168 110.408 181.696 110.28 181.25 109.957C180.805 109.634 180.424 109.163 180.108 108.544C179.541 107.344 179.181 106.193 179.029 105.09C178.876 103.986 178.748 102.618 178.645 100.984ZM190.405 109.267C190.012 109.321 189.748 109.135 189.611 108.707C189.189 105.654 188.631 102.959 187.937 100.622C187.896 100.319 187.964 100.033 188.142 99.7617C188.335 99.4885 188.568 99.3331 188.84 99.2954C189.127 99.2557 189.36 99.3851 189.54 99.6836C189.997 98.8657 190.694 98.3919 191.631 98.2621C192.824 98.0968 193.826 98.5435 194.635 99.602C195.24 98.4093 196.162 97.7272 197.401 97.5556C198.655 97.3819 199.661 97.7509 200.419 98.6625C200.913 99.2256 201.313 100.002 201.619 100.991C201.926 101.981 202.208 103.405 202.465 105.264C202.565 105.989 202.568 106.566 202.474 106.995C202.377 107.409 202.087 107.65 201.603 107.717C201.21 107.771 200.979 107.549 200.91 107.05L200.586 104.207C200.115 100.807 198.996 99.2292 197.228 99.474C196.668 99.5515 196.303 99.8023 196.13 100.227C195.938 100.731 195.855 101.243 195.881 101.763C195.946 102.678 196.03 103.506 196.132 104.246L196.588 107.533C196.621 107.775 196.528 107.996 196.31 108.195C196.091 108.395 195.853 108.513 195.596 108.548C195.264 108.594 195.022 108.404 194.87 107.979L194.289 103.277C194.059 101.615 193.636 100.618 193.02 100.288C192.721 100.129 192.292 100.088 191.732 100.166C191.188 100.241 190.809 100.501 190.593 100.947C190.393 101.391 190.355 102.066 190.481 102.973L191.201 107.17C191.38 108.47 191.115 109.169 190.405 109.267ZM213.32 106.048C212.806 106.119 212.306 106.011 211.82 105.724C211.82 105.724 211.71 105.655 211.49 105.516L212.432 112.316C212.383 112.631 212.259 112.902 212.059 113.13C211.862 113.373 211.635 113.513 211.378 113.548C210.985 113.602 210.752 113.365 210.679 112.836L208.491 97.0366C208.527 96.6311 208.595 96.3369 208.692 96.1539C208.805 95.9689 208.998 95.8575 209.27 95.8198C209.557 95.7801 209.748 95.823 209.842 95.9485C209.95 96.0569 210.104 96.3898 210.304 96.9473C210.323 96.6367 210.526 96.3236 210.913 96.0082C211.301 95.6927 211.85 95.4857 212.56 95.3874C214.101 95.174 215.274 95.5814 216.079 96.6097C216.884 97.6381 217.392 98.9154 217.603 100.442C217.812 101.953 217.533 103.216 216.765 104.231C216.01 105.229 214.861 105.835 213.32 106.048ZM210.655 99.4861L211.239 103.702C211.336 103.735 211.452 103.796 211.588 103.885C212.081 104.217 212.584 104.348 213.098 104.277C215.183 103.988 216.077 102.771 215.78 100.625C215.527 98.7962 214.899 97.705 213.895 97.3512C213.472 97.194 212.974 97.1552 212.4 97.2347C211.851 97.3877 211.41 97.7029 211.075 98.1805C210.739 98.6429 210.599 99.0781 210.655 99.4861ZM224.296 93.7624C224.961 93.6704 225.372 94.1911 225.529 95.3245C225.546 95.4454 225.563 95.5738 225.582 95.7098L225.757 97.3029C225.811 97.8037 225.871 98.2958 225.938 98.7794L226.987 103.855C227.04 104.233 226.68 104.475 225.91 104.582C225.864 104.588 225.751 104.604 225.57 104.629C225.403 104.652 225.273 104.601 225.179 104.475C225.099 104.348 225.069 104.183 225.087 103.98C225.12 103.775 225.075 103.558 224.951 103.329C224.358 104.166 223.487 104.663 222.339 104.822C220.208 105.117 218.915 103.618 218.458 100.323C218.205 98.4947 218.354 97.0649 218.904 96.0338C219.47 95.0006 220.395 94.395 221.679 94.2172C222.284 94.1335 222.903 94.1556 223.537 94.2835C223.695 93.9842 223.949 93.8106 224.296 93.7624ZM222.224 96.1517C221.363 96.2709 220.755 96.6092 220.401 97.1665C220.047 97.7238 219.962 98.6674 220.146 99.9972C220.456 102.234 221.215 103.268 222.424 103.101C222.741 103.057 223.069 102.865 223.407 102.526C223.76 102.184 223.987 101.822 224.088 101.438C224.262 100.582 224.282 99.6709 224.149 98.7038C224.015 97.7366 223.796 97.0506 223.494 96.6458C223.207 96.239 222.783 96.0742 222.224 96.1517ZM230.78 100.281L231.126 102.612C231.164 102.884 231.07 103.151 230.844 103.414C230.634 103.674 230.408 103.821 230.166 103.854C229.819 103.902 229.562 103.661 229.396 103.129C229.364 103.01 229.151 101.916 228.756 99.8447C228.36 97.7588 227.927 96.1398 227.46 94.9878C227.244 94.4324 227.129 94.1018 227.115 93.996C227.046 93.4973 227.313 93.2061 227.918 93.1224C228.175 93.0868 228.392 93.1568 228.571 93.3323C228.749 93.5079 228.868 93.6993 228.927 93.9067C229 94.0969 229.075 94.3637 229.154 94.7071C229.232 95.0505 229.285 95.2664 229.313 95.355C229.525 94.5555 229.923 93.9229 230.505 93.4572C231.088 92.9915 231.757 92.7063 232.512 92.6017C233.752 92.4301 234.415 92.6617 234.503 93.2964C234.547 93.6138 234.469 93.8864 234.27 94.1142C234.083 94.3249 233.846 94.4501 233.559 94.4898C232.275 94.6677 231.425 95.2012 231.009 96.0905C230.593 96.9798 230.517 98.3765 230.78 100.281ZM245.107 108.185C245.103 108.155 245.098 108.117 245.091 108.072L244.686 104.477C244.579 103.707 244.438 102.91 244.263 102.087L243.882 100.338C243.519 101.389 242.529 102.027 240.912 102.251C240.142 102.357 239.389 102.208 238.655 101.801C237.25 100.994 236.412 99.6163 236.142 97.6669C235.91 95.9894 236.106 94.6224 236.73 93.5657C237.369 92.5069 238.398 91.8792 239.819 91.6825C241.239 91.4858 242.342 91.7182 243.127 92.3796C243.666 92.8286 244.074 93.3266 244.35 93.8737C244.775 94.8313 245.087 95.974 245.287 97.3018L245.403 98.1405L246.234 102.808C246.314 103.274 246.411 103.923 246.526 104.754L246.913 107.542C246.892 107.838 246.775 108.108 246.563 108.353C246.35 108.598 246.146 108.734 245.949 108.761C245.451 108.83 245.17 108.638 245.107 108.185ZM239.387 93.5674C238.737 93.6574 238.289 93.9813 238.043 94.539C237.796 95.0968 237.753 95.9499 237.912 97.0984C238.071 98.247 238.448 99.1343 239.043 99.7604C239.636 100.371 240.257 100.632 240.907 100.542C241.557 100.452 242.099 100.138 242.532 99.6007C242.981 99.0611 243.282 98.3417 243.435 97.4427C243.138 95.8512 242.679 94.7672 242.061 94.1907C241.442 93.6141 240.55 93.4063 239.387 93.5674ZM246.14 91.6389C246.165 91.3737 246.264 91.1443 246.438 90.9509C246.609 90.7423 246.793 90.6244 246.99 90.5972C247.201 90.5679 247.365 90.5838 247.481 90.6447C247.613 90.7035 247.69 90.7621 247.714 90.8204C247.752 90.8767 247.797 90.9783 247.848 91.1252C247.921 92.3165 248.023 93.3882 248.155 94.3403C248.284 95.2772 248.547 96.3421 248.944 97.5348C249.338 98.7123 249.671 99.2823 249.943 99.2446C250.351 99.1881 250.833 98.8903 251.39 98.3512C251.962 97.8099 252.349 97.2711 252.552 96.7348C252.07 94.5837 251.721 92.7299 251.505 91.1734C251.461 90.856 251.522 90.5704 251.687 90.3165C251.867 90.0605 252.101 89.9127 252.388 89.8729C252.856 89.8081 253.134 90.093 253.222 90.7277C253.371 91.8007 253.667 93.3845 254.111 95.4793C254.57 97.572 254.923 98.8939 255.169 99.4452C255.216 99.5619 255.251 99.7034 255.274 99.8696C255.295 100.021 255.209 100.179 255.016 100.344C254.84 100.523 254.586 100.635 254.254 100.681C253.937 100.725 253.7 100.573 253.544 100.225C253.472 99.9266 253.333 99.4836 253.129 98.8959C252.224 100.146 251.235 100.845 250.162 100.993C249.663 101.062 249.191 100.935 248.746 100.612C248.301 100.288 247.92 99.8174 247.603 99.1989C247.036 97.999 246.677 96.8475 246.524 95.7443C246.371 94.6411 246.243 93.2727 246.14 91.6389ZM258.416 89.1306C259.217 89.0198 260.013 89.1483 260.803 89.5164C261.593 89.8844 262.037 90.416 262.133 91.1112C262.227 91.7912 262.024 92.4969 261.525 93.2284C261.023 93.9447 260.291 94.4388 259.328 94.7109C258.913 94.8299 258.282 94.948 257.436 95.0652C257.78 96.3267 258.222 97.128 258.762 97.469C258.936 97.6144 259.152 97.6692 259.409 97.6337C260.346 97.5039 261.091 97.1004 261.644 96.4232C262.195 95.7308 262.606 95.3658 262.878 95.3281C262.999 95.3114 263.196 95.3996 263.469 95.5928C263.743 95.786 263.893 95.9809 263.92 96.1773C263.974 96.5702 263.577 97.2029 262.727 98.0752C262.352 98.4813 261.879 98.8472 261.308 99.1727C260.75 99.4809 260.214 99.6707 259.701 99.7418C258.386 99.9238 257.302 99.2115 256.448 97.6047C255.91 96.6164 255.555 95.495 255.381 94.2407C255.207 92.9864 255.353 91.8651 255.816 90.8768C256.28 89.8885 257.147 89.3064 258.416 89.1306ZM258.746 90.6791C258.172 90.7586 257.726 91.1515 257.408 91.8578C257.288 92.1054 257.216 92.6391 257.19 93.4589C259.306 93.1659 260.292 92.4981 260.147 91.4554C260.06 90.8207 259.592 90.5619 258.746 90.6791Z" fill="black"/>
<path d="M276.782 81.0938C276.782 83.9259 276.782 86.758 276.782 89.5901C276.782 91.6749 276.592 93.9053 277.26 95.9093" stroke="black" stroke-width="2" stroke-linecap="round"/>
<path d="M281.8 81.0938V96.6261" stroke="black" stroke-width="2" stroke-linecap="round"/>
<path d="M276.543 79.899C274.138 79.899 271.786 80.3769 269.388 80.3769C267.007 80.3769 266.268 78.7683 266.268 76.5535C266.268 75.8854 265.953 74.495 266.64 74.0577C267.204 73.6991 268.364 73.925 269.003 73.925C269.491 73.925 270.07 74.479 270.45 74.7746C271.229 75.3804 269.509 74.9012 269.268 74.7481C266.641 73.0761 264.623 69.0178 265.365 65.8004C265.984 63.1208 272.35 61.7553 274.154 63.6498C274.963 64.4999 275.594 65.7372 275.933 66.8492C276.145 67.5451 276.304 69.7273 276.304 68.9998C276.304 66.4442 276.368 64.2397 277.99 62.1098C278.891 60.9276 281.333 59.8365 282.57 61.0743C283.851 62.3551 284.61 66.9062 283.128 68.1767C282.492 68.722 282.997 67.7799 283.42 67.5262C285.851 66.0675 289.034 65.9977 291.784 66.0393C294.775 66.0847 295.958 68.9022 295.315 71.5354C294.676 74.15 291.187 74.9823 288.89 75.1065C288.406 75.1326 287.406 75.3058 286.978 75.0003C286.774 74.8549 287.36 74.8824 287.429 74.9074C289.739 75.7471 291.12 78.9197 291.12 81.1203C291.12 84.0767 289.315 87.2122 286.102 87.3067C283.994 87.3687 282.346 85.0186 281.323 83.4833" stroke="black" stroke-width="2" stroke-linecap="round"/>
<path d="M58.1352 98.5378C58.1352 97.0504 57.6391 94.859 59.6752 94.4888C61.2533 94.2019 63.2747 94.4144 64.6402 95.2455C66.6375 96.4613 66.1271 99.4567 65.6624 101.419C65.0452 104.025 63.8081 106.862 62.7285 109.291C62.4303 109.962 62.6011 110.126 61.7063 109.623C60.5063 108.948 59.2387 108.26 58.1352 107.432C55.4426 105.413 49.9721 102.633 50.7408 98.4051C51.0655 96.6191 53.4462 97.0545 54.7367 97.1041C55.4389 97.1311 56.3762 98.2653 56.9271 98.644C58.2 99.5191 58.701 100.509 59.569 101.883" stroke="black" stroke-width="2" stroke-linecap="round"/>
<path d="M104.972 124.502C107.771 124.502 110.433 124.338 113.162 123.646C114.565 123.291 115.913 122.775 117.319 122.424C118.703 122.078 120.1 121.836 121.482 121.514C125.83 120.499 130.394 119.982 134.848 119.728C136.683 119.623 138.541 119.445 140.363 119.184C141.23 119.06 143.867 119.123 142.991 119.123" stroke="black" stroke-width="2" stroke-linecap="round"/>
<path d="M215.262 84.004C213.447 84.004 211.105 83.537 209.599 84.7421C206.948 86.8631 205.138 91.1264 204.875 94.4038C204.691 96.7037 204.153 99.5225 204.983 101.744C205.839 104.036 207.307 105.867 208.874 107.702C212.974 112.502 218.072 114.878 224.32 115.512C233.037 116.397 241.367 112.526 248.971 108.695C255.453 105.43 262.216 102.433 266.321 96.1483C268.478 92.8478 269.361 90.2507 266.496 87.2783C264.188 84.8838 261.501 82.9123 258.471 81.5349C252.809 78.9613 246.382 77.2515 240.208 76.543C236.276 76.0918 231.805 75.5772 227.876 76.1941C224.55 76.7162 220.081 78.6436 217.919 81.347" stroke="black" stroke-width="2" stroke-linecap="round"/>
<path d="M129.695 133.644C129.938 136.801 134.01 139.259 136.593 140.481C145.181 144.545 154.036 144.427 163.395 144.31C173.766 144.181 183.226 140.798 192.051 135.558C193.475 134.713 198.888 132.563 198.888 130.362" stroke="black" stroke-width="2" stroke-linecap="round"/>
<path d="M193.965 128.995C196.184 128.995 198.402 128.995 200.62 128.995C201.154 128.995 203.485 128.542 202.854 129.678C201.582 131.968 201.671 134.915 200.529 137.199" stroke="black" stroke-width="2" stroke-linecap="round"/>
<rect x="9.13089" y="56.6996" width="309.315" height="163.319" transform="rotate(-8.09738 9.13089 56.6996)" fill="#22C7FF" stroke="black" stroke-width="2"/>
<circle cx="173.71" cy="116.71" r="32.3601" transform="rotate(-9.65129 173.71 116.71)" fill="#22C7FF" stroke="white" stroke-width="4.13108"/>
<circle cx="173.183" cy="117.498" r="22.7209" transform="rotate(-9.65129 173.183 117.498)" fill="white"/>
<g filter="url(#filter1_d_132_252)">
<circle cx="173.146" cy="117.504" r="15.1473" transform="rotate(-9.65129 173.146 117.504)" stroke="#22C7FF" stroke-width="4.13108" shape-rendering="crispEdges"/>
</g>
<path d="M63.5102 200.919C60.2395 201.401 57.175 200.86 54.8708 199.643C52.5659 198.427 51.085 196.579 50.7696 194.438L33.3405 76.146C33.0251 74.0054 33.9102 71.809 35.7663 69.9793C37.6217 68.1501 40.3998 66.7477 43.6705 66.2658L284.144 30.8346C287.415 30.3527 290.479 30.8943 292.784 32.1106C295.088 33.3273 296.569 35.175 296.885 37.3156L314.314 155.608C314.629 157.748 313.744 159.945 311.888 161.775C310.033 163.604 307.255 165.006 303.984 165.488L63.5102 200.919Z" stroke="white" stroke-width="2"/>
<defs>
<filter id="filter0_d_132_252" x="0" y="27.1196" width="336.816" height="209.282" filterUnits="userSpaceOnUse" color-interpolation-filters="sRGB">
<feFlood flood-opacity="0" result="BackgroundImageFix"/>
<feColorMatrix in="SourceAlpha" type="matrix" values="0 0 0 0 0 0 0 0 0 0 0 0 0 0 0 0 0 0 127 0" result="hardAlpha"/>
<feOffset dy="4"/>
<feGaussianBlur stdDeviation="2"/>
<feComposite in2="hardAlpha" operator="out"/>
<feColorMatrix type="matrix" values="0 0 0 0 0 0 0 0 0 0 0 0 0 0 0 0 0 0 0.25 0"/>
<feBlend mode="normal" in2="BackgroundImageFix" result="effect1_dropShadow_132_252"/>
<feBlend mode="normal" in="SourceGraphic" in2="effect1_dropShadow_132_252" result="shape"/>
</filter>
<filter id="filter1_d_132_252" x="142.16" y="86.5181" width="61.9717" height="61.9717" filterUnits="userSpaceOnUse" color-interpolation-filters="sRGB">
<feFlood flood-opacity="0" result="BackgroundImageFix"/>
<feColorMatrix in="SourceAlpha" type="matrix" values="0 0 0 0 0 0 0 0 0 0 0 0 0 0 0 0 0 0 127 0" result="hardAlpha"/>
<feOffset/>
<feGaussianBlur stdDeviation="6.88513"/>
<feComposite in2="hardAlpha" operator="out"/>
<feColorMatrix type="matrix" values="0 0 0 0 0 0 0 0 0 0 0 0 0 0 0 0 0 0 0.25 0"/>
<feBlend mode="normal" in2="BackgroundImageFix" result="effect1_dropShadow_132_252"/>
<feBlend mode="normal" in="SourceGraphic" in2="effect1_dropShadow_132_252" result="shape"/>
</filter>
</defs>
</svg>
