<svg width="112" height="46" viewBox="0 0 112 46" fill="none" xmlns="http://www.w3.org/2000/svg">
<g filter="url(#filter0_d_111_637)">
<rect x="3" width="106" height="40" rx="8.19466" fill="#FAFAFA"/>
</g>
<rect x="9.5" y="5.5" width="93" height="29" rx="5.03061" fill="#FAFAFA" stroke="black" stroke-width="3"/>
<path d="M39.7898 18.7827C39.7557 18.4389 39.6094 18.1719 39.3509 17.9815C39.0923 17.7912 38.7415 17.696 38.2983 17.696C37.9972 17.696 37.7429 17.7386 37.5355 17.8239C37.3281 17.9062 37.169 18.0213 37.0582 18.169C36.9503 18.3168 36.8963 18.4844 36.8963 18.6719C36.8906 18.8281 36.9233 18.9645 36.9943 19.081C37.0682 19.1974 37.169 19.2983 37.2969 19.3835C37.4247 19.4659 37.5724 19.5384 37.7401 19.6009C37.9077 19.6605 38.0866 19.7116 38.277 19.7543L39.0611 19.9418C39.4418 20.027 39.7912 20.1406 40.1094 20.2827C40.4276 20.4247 40.7031 20.5994 40.9361 20.8068C41.169 21.0142 41.3494 21.2585 41.4773 21.5398C41.608 21.821 41.6747 22.1435 41.6776 22.5071C41.6747 23.0412 41.5384 23.5043 41.2685 23.8963C41.0014 24.2855 40.6151 24.5881 40.1094 24.804C39.6065 25.017 39 25.1236 38.2898 25.1236C37.5852 25.1236 36.9716 25.0156 36.4489 24.7997C35.929 24.5838 35.5227 24.2642 35.2301 23.8409C34.9403 23.4148 34.7884 22.8878 34.7741 22.2599H36.5597C36.5795 22.5526 36.6634 22.7969 36.8111 22.9929C36.9616 23.1861 37.1619 23.3324 37.4119 23.4318C37.6648 23.5284 37.9503 23.5767 38.2685 23.5767C38.581 23.5767 38.8523 23.5312 39.0824 23.4403C39.3153 23.3494 39.4957 23.223 39.6236 23.0611C39.7514 22.8991 39.8153 22.7131 39.8153 22.5028C39.8153 22.3068 39.7571 22.142 39.6406 22.0085C39.527 21.875 39.3594 21.7614 39.1378 21.6676C38.919 21.5739 38.6506 21.4886 38.3324 21.4119L37.3821 21.1733C36.6463 20.9943 36.0653 20.7145 35.6392 20.3338C35.2131 19.9531 35.0014 19.4403 35.0043 18.7955C35.0014 18.267 35.142 17.8054 35.4261 17.4105C35.7131 17.0156 36.1065 16.7074 36.6065 16.4858C37.1065 16.2642 37.6747 16.1534 38.3111 16.1534C38.9588 16.1534 39.5241 16.2642 40.0071 16.4858C40.4929 16.7074 40.8707 17.0156 41.1406 17.4105C41.4105 17.8054 41.5497 18.2628 41.5582 18.7827H39.7898ZM50.9386 20.6364C50.9386 21.5881 50.7582 22.3977 50.3974 23.0653C50.0394 23.733 49.5508 24.2429 48.9315 24.5952C48.315 24.9446 47.6218 25.1193 46.8519 25.1193C46.0763 25.1193 45.3803 24.9432 44.7638 24.5909C44.1474 24.2386 43.6602 23.7287 43.3022 23.0611C42.9442 22.3935 42.7653 21.5852 42.7653 20.6364C42.7653 19.6847 42.9442 18.875 43.3022 18.2074C43.6602 17.5398 44.1474 17.0312 44.7638 16.6818C45.3803 16.3295 46.0763 16.1534 46.8519 16.1534C47.6218 16.1534 48.315 16.3295 48.9315 16.6818C49.5508 17.0312 50.0394 17.5398 50.3974 18.2074C50.7582 18.875 50.9386 19.6847 50.9386 20.6364ZM49.0678 20.6364C49.0678 20.0199 48.9755 19.5 48.7908 19.0767C48.609 18.6534 48.3519 18.3324 48.0195 18.1136C47.6871 17.8949 47.2979 17.7855 46.8519 17.7855C46.4059 17.7855 46.0167 17.8949 45.6843 18.1136C45.3519 18.3324 45.0934 18.6534 44.9087 19.0767C44.7269 19.5 44.636 20.0199 44.636 20.6364C44.636 21.2528 44.7269 21.7727 44.9087 22.196C45.0934 22.6193 45.3519 22.9403 45.6843 23.1591C46.0167 23.3778 46.4059 23.4872 46.8519 23.4872C47.2979 23.4872 47.6871 23.3778 48.0195 23.1591C48.3519 22.9403 48.609 22.6193 48.7908 22.196C48.9755 21.7727 49.0678 21.2528 49.0678 20.6364ZM52.3054 25V16.2727H55.7997C56.4418 16.2727 56.9773 16.3679 57.4062 16.5582C57.8352 16.7486 58.1577 17.0128 58.3736 17.3509C58.5895 17.6861 58.6974 18.0724 58.6974 18.5099C58.6974 18.8509 58.6293 19.1506 58.4929 19.4091C58.3565 19.6648 58.169 19.875 57.9304 20.0398C57.6946 20.2017 57.4247 20.3168 57.1207 20.3849V20.4702C57.4531 20.4844 57.7642 20.5781 58.054 20.7514C58.3466 20.9247 58.5838 21.1676 58.7656 21.4801C58.9474 21.7898 59.0384 22.1591 59.0384 22.5881C59.0384 23.0511 58.9233 23.4645 58.6932 23.8281C58.4659 24.1889 58.1293 24.4744 57.6832 24.6847C57.2372 24.8949 56.6875 25 56.0341 25H52.3054ZM54.1506 23.4915H55.6548C56.169 23.4915 56.544 23.3935 56.7798 23.1974C57.0156 22.9986 57.1335 22.7344 57.1335 22.4048C57.1335 22.1634 57.0753 21.9503 56.9588 21.7656C56.8423 21.581 56.6761 21.4361 56.4602 21.331C56.2472 21.2259 55.9929 21.1733 55.6974 21.1733H54.1506V23.4915ZM54.1506 19.9247H55.5185C55.7713 19.9247 55.9957 19.8807 56.1918 19.7926C56.3906 19.7017 56.5469 19.5739 56.6605 19.4091C56.777 19.2443 56.8352 19.0469 56.8352 18.8168C56.8352 18.5014 56.723 18.2472 56.4986 18.054C56.277 17.8608 55.9616 17.7642 55.5526 17.7642H54.1506V19.9247ZM60.239 25V16.2727H63.6822C64.3413 16.2727 64.9038 16.3906 65.3697 16.6264C65.8384 16.8594 66.195 17.1903 66.4393 17.6193C66.6864 18.0455 66.81 18.5469 66.81 19.1236C66.81 19.7031 66.685 20.2017 66.435 20.6193C66.185 21.0341 65.8228 21.3523 65.3484 21.5739C64.8768 21.7955 64.3058 21.9062 63.6353 21.9062H61.3299V20.4233H63.337C63.6893 20.4233 63.9819 20.375 64.2148 20.2784C64.4478 20.1818 64.6211 20.0369 64.7347 19.8438C64.8512 19.6506 64.9094 19.4105 64.9094 19.1236C64.9094 18.8338 64.8512 18.5895 64.7347 18.3906C64.6211 18.1918 64.4464 18.0412 64.2106 17.9389C63.9776 17.8338 63.6836 17.7812 63.3285 17.7812H62.0842V25H60.239ZM64.9521 21.0284L67.1211 25H65.0842L62.962 21.0284H64.9521ZM68.114 25V16.2727H73.9947V17.794H69.9592V19.8736H73.6921V21.3949H69.9592V23.4787H74.0117V25H68.114Z" fill="black"/>
<defs>
<filter id="filter0_d_111_637" x="0.230769" y="0" width="111.538" height="45.5385" filterUnits="userSpaceOnUse" color-interpolation-filters="sRGB">
<feFlood flood-opacity="0" result="BackgroundImageFix"/>
<feColorMatrix in="SourceAlpha" type="matrix" values="0 0 0 0 0 0 0 0 0 0 0 0 0 0 0 0 0 0 127 0" result="hardAlpha"/>
<feOffset dy="2.76923"/>
<feGaussianBlur stdDeviation="1.38462"/>
<feComposite in2="hardAlpha" operator="out"/>
<feColorMatrix type="matrix" values="0 0 0 0 0 0 0 0 0 0 0 0 0 0 0 0 0 0 0.25 0"/>
<feBlend mode="normal" in2="BackgroundImageFix" result="effect1_dropShadow_111_637"/>
<feBlend mode="normal" in="SourceGraphic" in2="effect1_dropShadow_111_637" result="shape"/>
</filter>
</defs>
</svg>
