<svg width="192" height="90" viewBox="0 0 192 90" fill="none" xmlns="http://www.w3.org/2000/svg">
<path d="M2 68.6633V25.0204V21.1837C2 10.5888 10.5888 2 21.1837 2H120.939C130.739 2 138.684 9.94466 138.684 19.7449C138.684 29.5451 146.628 37.4898 156.429 37.4898H169.681C179.16 37.4898 187.218 44.4128 188.646 53.7836L189.781 61.2317C189.927 62.1881 190 63.1542 190 64.1216V68.6633C190 79.2581 181.411 87.8469 170.816 87.8469H21.1837C10.5888 87.8469 2 79.2581 2 68.6633Z" fill="#FAFAFA" stroke="black" stroke-width="2.87755"/>
<path d="M24.3001 29.5235C24.3001 30.8609 24.4575 32.0673 24.7722 33.1425C25.1131 34.2177 25.5851 35.1487 26.1883 35.9354C26.8177 36.6959 27.5782 37.286 28.4699 37.7056C29.3615 38.1252 30.3843 38.335 31.5382 38.335C32.6658 38.335 33.6755 38.1252 34.5671 37.7056C35.485 37.286 36.2455 36.6959 36.8487 35.9354C37.4781 35.1487 37.9501 34.2177 38.2648 33.1425C38.6057 32.0673 38.7762 30.8609 38.7762 29.5235C38.7762 28.186 38.6057 26.9797 38.2648 25.9045C37.9501 24.803 37.4781 23.872 36.8487 23.1115C36.2455 22.3248 35.485 21.7216 34.5671 21.302C33.6755 20.8824 32.6658 20.6726 31.5382 20.6726C30.3843 20.6726 29.3615 20.8955 28.4699 21.3414C27.5782 21.761 26.8177 22.3641 26.1883 23.1509C25.5851 23.9114 25.1131 24.8424 24.7722 25.9438C24.4575 27.019 24.3001 28.2122 24.3001 29.5235ZM45.1095 29.5235C45.1095 31.8575 44.7554 33.9161 44.0474 35.6994C43.3655 37.4565 42.4214 38.9382 41.2151 40.1445C40.0088 41.3246 38.5664 42.2163 36.888 42.8194C35.2359 43.4226 33.4526 43.7242 31.5382 43.7242C29.6762 43.7242 27.9191 43.4226 26.267 42.8194C24.6148 42.2163 23.1725 41.3246 21.9399 40.1445C20.7073 38.9382 19.737 37.4565 19.029 35.6994C18.3209 33.9161 17.9669 31.8575 17.9669 29.5235C17.9669 27.1895 18.334 25.1439 19.0683 23.3869C19.8026 21.6036 20.786 20.1088 22.0186 18.9025C23.2774 17.6961 24.7197 16.7914 26.3457 16.1882C27.9978 15.585 29.7287 15.2834 31.5382 15.2834C33.4001 15.2834 35.1572 15.585 36.8093 16.1882C38.4615 16.7914 39.9039 17.6961 41.1364 18.9025C42.369 20.1088 43.3393 21.6036 44.0474 23.3869C44.7554 25.1439 45.1095 27.1895 45.1095 29.5235ZM58.407 15.5981C62.4718 15.5981 65.5925 16.3193 67.7692 17.7617C69.9458 19.1778 71.0342 21.5118 71.0342 24.7637C71.0342 28.0418 69.9327 30.4151 67.7299 31.8837C65.527 33.3261 62.38 34.0472 58.2889 34.0472H56.3614V43.1735H50.2248V16.3062C51.5623 16.044 52.9784 15.8604 54.4732 15.7555C55.9681 15.6506 57.2793 15.5981 58.407 15.5981ZM58.8003 20.83C58.3545 20.83 57.9087 20.8431 57.4629 20.8693C57.0433 20.8955 56.6761 20.9218 56.3614 20.948V28.8154H58.2889C60.4131 28.8154 62.0129 28.5269 63.0881 27.95C64.1633 27.373 64.7009 26.2978 64.7009 24.7244C64.7009 23.9638 64.5567 23.3344 64.2682 22.8362C64.0059 22.3379 63.6126 21.9445 63.0881 21.6561C62.5898 21.3414 61.9735 21.1316 61.2392 21.0267C60.5049 20.8955 59.692 20.83 58.8003 20.83ZM75.5404 43.1735V15.9128H93.9502V21.066H81.677V26.4158H92.5734V31.451H81.677V38.0203H94.855V43.1735H75.5404ZM117.688 43.1735C115.931 40.0527 114.03 36.9713 111.984 33.9292C109.939 30.8872 107.762 28.0156 105.454 25.3144V43.1735H99.3962V15.9128H104.392C105.257 16.7783 106.215 17.8404 107.264 19.0991C108.313 20.3579 109.375 21.7085 110.45 23.1509C111.551 24.567 112.64 26.0487 113.715 27.596C114.79 29.117 115.8 30.5856 116.744 32.0017V15.9128H122.841V43.1735H117.688Z" fill="#9480FF"/>
<path d="M37.3601 69.7634V75.0345H19.147V47.7739H25.2836V69.7634H37.3601ZM45.6974 61.3846C45.6974 62.722 45.8547 63.9284 46.1694 65.0036C46.5103 66.0788 46.9824 67.0098 47.5856 67.7965C48.215 68.557 48.9755 69.1471 49.8671 69.5667C50.7588 69.9863 51.7815 70.1961 52.9354 70.1961C54.0631 70.1961 55.0727 69.9863 55.9644 69.5667C56.8822 69.1471 57.6428 68.557 58.2459 67.7965C58.8753 67.0098 59.3474 66.0788 59.6621 65.0036C60.003 63.9284 60.1734 62.722 60.1734 61.3846C60.1734 60.0471 60.003 58.8408 59.6621 57.7655C59.3474 56.6641 58.8753 55.7331 58.2459 54.9726C57.6428 54.1859 56.8822 53.5827 55.9644 53.1631C55.0727 52.7435 54.0631 52.5337 52.9354 52.5337C51.7815 52.5337 50.7588 52.7566 49.8671 53.2024C48.9755 53.622 48.215 54.2252 47.5856 55.0119C46.9824 55.7725 46.5103 56.7034 46.1694 57.8049C45.8547 58.8801 45.6974 60.0733 45.6974 61.3846ZM66.5067 61.3846C66.5067 63.7186 66.1527 65.7772 65.4446 67.5605C64.7628 69.3176 63.8187 70.7992 62.6123 72.0056C61.406 73.1857 59.9636 74.0773 58.2853 74.6805C56.6331 75.2837 54.8498 75.5853 52.9354 75.5853C51.0735 75.5853 49.3164 75.2837 47.6642 74.6805C46.0121 74.0773 44.5697 73.1857 43.3371 72.0056C42.1046 70.7992 41.1343 69.3176 40.4262 67.5605C39.7181 65.7772 39.3641 63.7186 39.3641 61.3846C39.3641 59.0506 39.7312 57.005 40.4655 55.248C41.1998 53.4647 42.1833 51.9699 43.4158 50.7635C44.6746 49.5572 46.117 48.6524 47.7429 48.0493C49.3951 47.4461 51.1259 47.1445 52.9354 47.1445C54.7974 47.1445 56.5544 47.4461 58.2066 48.0493C59.8587 48.6524 61.3011 49.5572 62.5337 50.7635C63.7662 51.9699 64.7365 53.4647 65.4446 55.248C66.1527 57.005 66.5067 59.0506 66.5067 61.3846ZM84.0526 75.5853C79.6206 75.5853 76.2376 74.3527 73.9036 71.8876C71.5959 69.4224 70.442 65.9214 70.442 61.3846C70.442 59.1292 70.796 57.123 71.5041 55.366C72.2121 53.5827 73.1824 52.0879 74.415 50.8816C75.6476 49.649 77.1162 48.718 78.8208 48.0886C80.5254 47.4592 82.3742 47.1445 84.3673 47.1445C85.5212 47.1445 86.5702 47.2363 87.5143 47.4199C88.4584 47.5772 89.2844 47.7739 89.9925 48.0099C90.7006 48.2197 91.2906 48.4426 91.7627 48.6787C92.2347 48.9147 92.5757 49.0983 92.7854 49.2294L91.0153 54.1859C90.1761 53.74 89.1927 53.3598 88.065 53.0451C86.9636 52.7304 85.7048 52.573 84.2886 52.573C83.3445 52.573 82.4136 52.7304 81.4957 53.0451C80.6041 53.3598 79.8042 53.8712 79.0961 54.5792C78.4143 55.2611 77.8636 56.1527 77.444 57.2542C77.0244 58.3556 76.8146 59.6931 76.8146 61.2666C76.8146 62.5253 76.9457 63.7055 77.2079 64.8069C77.4964 65.8821 77.9422 66.8131 78.5454 67.5998C79.1748 68.3866 79.9878 69.016 80.9843 69.488C81.9809 69.9338 83.1872 70.1567 84.6033 70.1567C85.495 70.1567 86.2948 70.1043 87.0029 69.9994C87.711 69.8945 88.3404 69.7765 88.8911 69.6454C89.4418 69.488 89.927 69.3176 90.3465 69.134C90.7661 68.9504 91.1464 68.7799 91.4873 68.6226L93.1788 73.5397C92.3134 74.0642 91.094 74.5363 89.5205 74.9559C87.947 75.3755 86.1244 75.5853 84.0526 75.5853ZM113.219 75.0345C112.668 74.1429 112.012 73.1857 111.252 72.1629C110.517 71.1139 109.705 70.0781 108.813 69.0553C107.947 68.0063 107.043 67.0098 106.099 66.0657C105.155 65.0954 104.21 64.2431 103.266 63.5088V75.0345H97.1297V47.7739H103.266V58.0802C104.866 56.4019 106.466 54.6579 108.065 52.8484C109.691 51.0127 111.199 49.3212 112.589 47.7739H119.867C118.005 49.9768 116.13 52.101 114.241 54.1465C112.379 56.1921 110.413 58.2507 108.341 60.3225C110.517 62.132 112.615 64.2824 114.635 66.7737C116.68 69.2651 118.634 72.0187 120.496 75.0345H113.219ZM124.02 75.0345V47.7739H142.43V52.9271H130.157V58.2769H141.053V63.3121H130.157V69.8814H143.335V75.0345H124.02ZM155.862 47.4592C159.953 47.4592 163.087 48.1935 165.263 49.6621C167.44 51.1045 168.528 53.3598 168.528 56.4281C168.528 58.3425 168.082 59.9029 167.191 61.1092C166.325 62.2893 165.066 63.2203 163.414 63.9021C163.965 64.584 164.542 65.3707 165.145 66.2624C165.748 67.1278 166.338 68.0456 166.915 69.016C167.519 69.9601 168.095 70.9566 168.646 72.0056C169.197 73.0284 169.708 74.038 170.18 75.0345H163.296C162.798 74.1429 162.287 73.2382 161.762 72.3203C161.264 71.4024 160.739 70.5108 160.189 69.6454C159.664 68.7799 159.14 67.967 158.615 67.2065C158.091 66.4197 157.566 65.7116 157.042 65.0823H154.013V75.0345H147.876V48.1673C149.214 47.905 150.59 47.7215 152.007 47.6166C153.449 47.5117 154.734 47.4592 155.862 47.4592ZM156.216 52.6911C155.77 52.6911 155.363 52.7042 154.996 52.7304C154.655 52.7566 154.327 52.7828 154.013 52.8091V60.2045H155.744C158.051 60.2045 159.704 59.916 160.7 59.339C161.697 58.7621 162.195 57.7787 162.195 56.3887C162.195 55.0513 161.684 54.1072 160.661 53.5565C159.664 52.9795 158.182 52.6911 156.216 52.6911Z" fill="#9480FF"/>
<circle cx="53.6981" cy="62.8846" r="14.4826" fill="#9480FF" stroke="#6758B7" stroke-width="1.84884"/>
<circle cx="53.4064" cy="63.1926" r="10.1686" fill="#FAFAFA"/>
<g filter="url(#filter0_d_111_641)">
<circle cx="53.3899" cy="63.1927" r="6.7791" stroke="#6758B7" stroke-width="1.84884" shape-rendering="crispEdges"/>
</g>
<defs>
<filter id="filter0_d_111_641" x="39.5236" y="49.3263" width="27.7326" height="27.7326" filterUnits="userSpaceOnUse" color-interpolation-filters="sRGB">
<feFlood flood-opacity="0" result="BackgroundImageFix"/>
<feColorMatrix in="SourceAlpha" type="matrix" values="0 0 0 0 0 0 0 0 0 0 0 0 0 0 0 0 0 0 127 0" result="hardAlpha"/>
<feOffset/>
<feGaussianBlur stdDeviation="3.08141"/>
<feComposite in2="hardAlpha" operator="out"/>
<feColorMatrix type="matrix" values="0 0 0 0 0 0 0 0 0 0 0 0 0 0 0 0 0 0 0.25 0"/>
<feBlend mode="normal" in2="BackgroundImageFix" result="effect1_dropShadow_111_641"/>
<feBlend mode="normal" in="SourceGraphic" in2="effect1_dropShadow_111_641" result="shape"/>
</filter>
</defs>
</svg>
