<svg width="327" height="337" viewBox="0 0 327 337" fill="none" xmlns="http://www.w3.org/2000/svg">
<rect x="0.908501" y="1.08861" width="152.04" height="246.168" rx="8.1668" transform="matrix(0.99572 0.0924163 -0.087219 0.996189 172.744 25.6603)" fill="#FE2F62" stroke="black" stroke-width="2"/>
<rect x="0.908501" y="1.08861" width="173.708" height="281.077" rx="9.45627" transform="matrix(0.99572 0.0924163 -0.087219 0.996189 128.788 4.0386)" fill="#FF7698" stroke="black" stroke-width="2"/>
<rect x="1.16471" y="0.788538" width="152.168" height="245.973" rx="8.1668" transform="matrix(0.980917 -0.194428 0.18379 0.982965 -0.122699 46.688)" fill="#FE2F62" stroke="black" stroke-width="2"/>
<rect x="1.11094" y="0.866969" width="173.744" height="281.021" rx="9.45627" transform="matrix(0.992038 -0.125937 0.118903 0.992906 30.9058 24.338)" fill="#FF7698" stroke="black" stroke-width="2"/>
<g filter="url(#filter0_d_90_44)">
<rect x="79" y="11" width="186" height="313" rx="11.5589" fill="#FF7698"/>
<rect x="80" y="12" width="184" height="311" rx="10.5589" stroke="black" stroke-width="2"/>
</g>
<g filter="url(#filter1_d_90_44)">
<rect x="90" y="22" width="165" height="292" rx="10.3042" fill="#FF7698"/>
<rect x="91" y="23" width="163" height="290" rx="9.30418" stroke="white" stroke-width="2"/>
</g>
<g filter="url(#filter2_d_90_44)">
<ellipse cx="45.5991" cy="44.7517" rx="45.5991" ry="44.7517" transform="matrix(-0.00252279 -0.999997 0.999996 -0.00267437 127.23 210.546)" fill="white"/>
<ellipse cx="39.6306" cy="38.8941" rx="39.6306" ry="38.8941" transform="matrix(-0.00252279 -0.999997 0.999996 -0.00267437 133.244 204.8)" fill="#FE2F62"/>
<ellipse cx="30.7973" cy="30.225" rx="30.7973" ry="30.225" transform="matrix(-0.00252279 -0.999997 0.999996 -0.00267437 142.033 195.704)" fill="white"/>
<ellipse cx="23.3964" cy="22.9616" rx="23.3964" ry="22.9616" transform="matrix(-0.00252279 -0.999997 0.999996 -0.00267437 148.971 188.524)" fill="#FE2F62"/>
<ellipse cx="18.1441" cy="17.807" rx="18.1441" ry="17.807" transform="matrix(-0.00252279 -0.999997 0.999996 -0.00267437 154.522 183.256)" fill="#FF7496"/>
</g>
<defs>
<filter id="filter0_d_90_44" x="70" y="6" width="204" height="331" filterUnits="userSpaceOnUse" color-interpolation-filters="sRGB">
<feFlood flood-opacity="0" result="BackgroundImageFix"/>
<feColorMatrix in="SourceAlpha" type="matrix" values="0 0 0 0 0 0 0 0 0 0 0 0 0 0 0 0 0 0 127 0" result="hardAlpha"/>
<feOffset dy="4"/>
<feGaussianBlur stdDeviation="4.5"/>
<feComposite in2="hardAlpha" operator="out"/>
<feColorMatrix type="matrix" values="0 0 0 0 0 0 0 0 0 0 0 0 0 0 0 0 0 0 0.25 0"/>
<feBlend mode="normal" in2="BackgroundImageFix" result="effect1_dropShadow_90_44"/>
<feBlend mode="normal" in="SourceGraphic" in2="effect1_dropShadow_90_44" result="shape"/>
</filter>
<filter id="filter1_d_90_44" x="81" y="17" width="183" height="310" filterUnits="userSpaceOnUse" color-interpolation-filters="sRGB">
<feFlood flood-opacity="0" result="BackgroundImageFix"/>
<feColorMatrix in="SourceAlpha" type="matrix" values="0 0 0 0 0 0 0 0 0 0 0 0 0 0 0 0 0 0 127 0" result="hardAlpha"/>
<feOffset dy="4"/>
<feGaussianBlur stdDeviation="4.5"/>
<feComposite in2="hardAlpha" operator="out"/>
<feColorMatrix type="matrix" values="0 0 0 0 0 0 0 0 0 0 0 0 0 0 0 0 0 0 0.25 0"/>
<feBlend mode="normal" in2="BackgroundImageFix" result="effect1_dropShadow_90_44"/>
<feBlend mode="normal" in="SourceGraphic" in2="effect1_dropShadow_90_44" result="shape"/>
</filter>
<filter id="filter2_d_90_44" x="118.115" y="114.228" width="107.503" height="109.198" filterUnits="userSpaceOnUse" color-interpolation-filters="sRGB">
<feFlood flood-opacity="0" result="BackgroundImageFix"/>
<feColorMatrix in="SourceAlpha" type="matrix" values="0 0 0 0 0 0 0 0 0 0 0 0 0 0 0 0 0 0 127 0" result="hardAlpha"/>
<feOffset dy="4"/>
<feGaussianBlur stdDeviation="4.5"/>
<feComposite in2="hardAlpha" operator="out"/>
<feColorMatrix type="matrix" values="0 0 0 0 0 0 0 0 0 0 0 0 0 0 0 0 0 0 0.25 0"/>
<feBlend mode="normal" in2="BackgroundImageFix" result="effect1_dropShadow_90_44"/>
<feBlend mode="normal" in="SourceGraphic" in2="effect1_dropShadow_90_44" result="shape"/>
</filter>
</defs>
</svg>
