<svg width="381" height="313" viewBox="0 0 381 313" fill="none" xmlns="http://www.w3.org/2000/svg">
<g filter="url(#filter0_d_383_692)">
<rect x="23" y="105.264" width="311.315" height="165.319" transform="rotate(-6.85245 23 105.264)" fill="#22C7FF"/>
<rect x="24.1122" y="106.137" width="309.315" height="163.319" transform="rotate(-6.85245 24.1122 106.137)" stroke="black" stroke-width="2"/>
</g>
<rect x="37.7901" y="95.6998" width="309.315" height="163.319" transform="rotate(-8.09738 37.7901 95.6998)" fill="#179AC6" stroke="black" stroke-width="2"/>
<rect x="26.7901" y="85.6998" width="309.315" height="163.319" transform="rotate(-8.09738 26.7901 85.6998)" fill="#22C7FF" stroke="black" stroke-width="2"/>
<path d="M91.7643 156.644C91.7892 156.379 91.8884 156.15 92.0618 155.956C92.2332 155.748 92.4171 155.63 92.6135 155.603C92.8251 155.573 92.989 155.589 93.1052 155.65C93.2366 155.709 93.314 155.767 93.3375 155.826C93.3761 155.882 93.421 155.984 93.4721 156.131C93.5446 157.322 93.6468 158.394 93.7786 159.346C93.9084 160.283 94.1713 161.347 94.5675 162.54C94.9616 163.718 95.2946 164.288 95.5666 164.25C95.9746 164.193 96.4571 163.896 97.0139 163.357C97.5858 162.815 97.9733 162.276 98.1763 161.74C97.6936 159.589 97.3445 157.735 97.129 156.179C97.0851 155.861 97.1456 155.576 97.3107 155.322C97.4909 155.066 97.7245 154.918 98.0117 154.878C98.4802 154.813 98.7583 155.098 98.8462 155.733C98.9948 156.806 99.2911 158.39 99.7351 160.485C100.194 162.577 100.547 163.899 100.793 164.451C100.839 164.567 100.874 164.709 100.897 164.875C100.918 165.026 100.832 165.184 100.64 165.35C100.464 165.528 100.21 165.64 99.8778 165.686C99.5604 165.73 99.3237 165.578 99.1677 165.23C99.0956 164.932 98.9573 164.489 98.7527 163.901C97.8476 165.151 96.8586 165.85 95.7856 165.999C95.2869 166.068 94.815 165.94 94.3697 165.617C93.9245 165.294 93.5436 164.823 93.2269 164.204C92.6603 163.004 92.3007 161.853 92.1479 160.75C91.9952 159.646 91.8673 158.278 91.7643 156.644ZM103.524 164.927C103.131 164.981 102.867 164.795 102.731 164.367C102.308 161.314 101.75 158.619 101.057 156.282C101.015 155.98 101.083 155.693 101.261 155.422C101.454 155.149 101.687 154.993 101.959 154.956C102.246 154.916 102.48 155.045 102.659 155.344C103.116 154.526 103.813 154.052 104.75 153.922C105.944 153.757 106.945 154.204 107.754 155.262C108.359 154.069 109.281 153.387 110.52 153.216C111.774 153.042 112.78 153.411 113.538 154.323C114.032 154.886 114.432 155.662 114.738 156.652C115.045 157.641 115.327 159.065 115.584 160.924C115.685 161.649 115.687 162.226 115.593 162.655C115.496 163.069 115.206 163.31 114.722 163.377C114.329 163.431 114.099 163.209 114.029 162.71L113.705 159.867C113.234 156.467 112.115 154.889 110.347 155.134C109.788 155.212 109.422 155.462 109.25 155.887C109.058 156.391 108.974 156.903 109 157.423C109.065 158.338 109.149 159.166 109.252 159.906L109.707 163.193C109.74 163.435 109.648 163.656 109.429 163.855C109.21 164.055 108.972 164.173 108.715 164.208C108.383 164.254 108.141 164.065 107.99 163.639L107.408 158.937C107.178 157.275 106.755 156.278 106.139 155.948C105.84 155.789 105.411 155.748 104.852 155.826C104.308 155.901 103.928 156.161 103.712 156.607C103.512 157.051 103.474 157.726 103.6 158.633L104.32 162.83C104.5 164.13 104.235 164.829 103.524 164.927ZM121.809 156.966C121.669 155.954 121.806 154.995 122.219 154.091C122.648 153.184 123.25 152.47 124.025 151.947C124.797 151.408 125.577 151.085 126.362 150.976C127.148 150.867 127.789 150.879 128.285 151.01C128.793 151.125 129.07 151.34 129.114 151.658C129.155 151.96 129.108 152.282 128.97 152.625C128.846 152.95 128.64 153.133 128.353 153.172C128.247 153.187 127.941 153.145 127.434 153.045C126.941 152.929 126.626 152.88 126.49 152.899C125.614 153.02 124.91 153.449 124.381 154.184C123.849 154.905 123.657 155.794 123.803 156.852C123.949 157.91 124.226 158.68 124.631 159.163C125.05 159.629 125.675 159.804 126.506 159.689C126.839 159.643 127.379 159.376 128.128 158.887C128.889 158.381 129.368 158.114 129.565 158.087C129.761 158.06 129.928 158.098 130.066 158.203C130.204 158.307 130.285 158.45 130.31 158.631C130.36 158.994 130.179 159.411 129.768 159.884C129.369 160.34 128.848 160.751 128.205 161.117C127.561 161.468 126.967 161.681 126.423 161.757C125.214 161.924 124.196 161.58 123.369 160.724C122.557 159.866 122.037 158.614 121.809 156.966ZM136.508 149.548C137.173 149.456 137.584 149.977 137.741 151.11C137.757 151.231 137.775 151.36 137.794 151.496L137.968 153.089C138.022 153.589 138.083 154.082 138.15 154.565L139.199 159.641C139.251 160.019 138.892 160.261 138.121 160.368C138.076 160.374 137.963 160.39 137.781 160.415C137.615 160.438 137.485 160.387 137.39 160.261C137.311 160.134 137.281 159.968 137.299 159.766C137.332 159.561 137.286 159.344 137.162 159.115C136.57 159.951 135.699 160.449 134.551 160.608C132.42 160.903 131.126 159.403 130.67 156.109C130.417 154.28 130.566 152.851 131.116 151.82C131.681 150.786 132.606 150.181 133.891 150.003C134.495 149.919 135.114 149.941 135.748 150.069C135.907 149.77 136.16 149.596 136.508 149.548ZM134.436 151.937C133.574 152.057 132.967 152.395 132.613 152.952C132.259 153.51 132.174 154.453 132.358 155.783C132.667 158.02 133.427 159.054 134.636 158.887C134.953 158.843 135.281 158.651 135.619 158.312C135.972 157.97 136.199 157.608 136.3 157.224C136.474 156.368 136.494 155.457 136.36 154.49C136.226 153.522 136.008 152.836 135.706 152.432C135.418 152.025 134.995 151.86 134.436 151.937ZM139.844 152.02C139.721 151.129 139.94 150.374 140.501 149.758C141.063 149.141 141.759 148.775 142.59 148.66C143.436 148.543 144.266 148.582 145.078 148.777C145.891 148.973 146.332 149.32 146.401 149.819C146.436 150.076 146.366 150.293 146.191 150.472C146.015 150.65 145.852 150.749 145.701 150.77C145.565 150.789 145.452 150.805 145.361 150.817C145.283 150.813 144.961 150.711 144.395 150.512C143.843 150.311 143.348 150.241 142.91 150.302C142.472 150.363 142.11 150.528 141.824 150.799C141.551 151.052 141.443 151.391 141.502 151.814C141.561 152.237 141.78 152.545 142.162 152.739C142.558 152.931 143.214 153.055 144.131 153.113C145.046 153.156 145.759 153.304 146.271 153.556C146.799 153.807 147.122 154.362 147.242 155.224C147.415 156.478 147.206 157.416 146.615 158.037C146.036 158.641 145.278 159.007 144.341 159.137C143.404 159.267 142.585 159.249 141.885 159.084C141.2 158.917 140.821 158.577 140.75 158.063C140.669 157.474 140.922 157.138 141.512 157.057C141.663 157.036 142.01 157.096 142.553 157.236C143.096 157.376 143.617 157.412 144.116 157.343C144.63 157.272 144.993 157.06 145.206 156.707C145.432 156.337 145.516 155.94 145.457 155.517C145.399 155.094 145.183 154.816 144.81 154.683C144.435 154.534 143.885 154.449 143.158 154.426C142.431 154.404 141.891 154.347 141.54 154.257C140.583 154.02 140.018 153.275 139.844 152.02ZM154.107 147.111C154.771 147.019 155.182 147.54 155.339 148.674C155.356 148.794 155.374 148.923 155.393 149.059L155.567 150.652C155.621 151.153 155.681 151.645 155.748 152.128L156.798 157.204C156.85 157.582 156.491 157.824 155.72 157.931C155.675 157.937 155.561 157.953 155.38 157.978C155.214 158.001 155.084 157.95 154.989 157.824C154.91 157.697 154.879 157.532 154.897 157.329C154.931 157.124 154.885 156.907 154.761 156.678C154.168 157.515 153.298 158.012 152.149 158.171C150.019 158.466 148.725 156.967 148.269 153.672C148.016 151.844 148.164 150.414 148.715 149.383C149.28 148.35 150.205 147.744 151.49 147.566C152.094 147.483 152.713 147.505 153.347 147.633C153.506 147.333 153.759 147.16 154.107 147.111ZM152.035 149.501C151.173 149.62 150.566 149.958 150.211 150.516C149.857 151.073 149.772 152.016 149.957 153.346C150.266 155.583 151.026 156.617 152.234 156.45C152.552 156.406 152.88 156.214 153.218 155.875C153.571 155.533 153.798 155.171 153.899 154.787C154.073 153.931 154.093 153.02 153.959 152.053C153.825 151.086 153.607 150.4 153.304 149.995C153.017 149.588 152.594 149.423 152.035 149.501ZM156.026 142.687C155.992 142.107 156.031 141.724 156.144 141.539C156.27 141.337 156.492 141.213 156.809 141.17C157.459 141.08 157.821 141.299 157.894 141.828C157.95 142.236 158.06 143.307 158.223 145.04C158.401 146.771 158.584 148.317 158.773 149.677C158.961 151.037 159.166 152.125 159.387 152.942C159.769 154.367 160.126 155.057 160.459 155.011C160.791 154.965 161.008 154.696 161.109 154.205C161.16 154.013 161.259 153.838 161.406 153.679C161.551 153.504 161.752 153.4 162.009 153.364C162.538 153.291 162.865 153.7 162.988 154.592C163.055 155.075 162.857 155.595 162.395 156.152C161.946 156.692 161.465 156.997 160.951 157.068C160.437 157.139 160.01 157.114 159.67 156.992C159.343 156.852 159.057 156.622 158.812 156.302C158.583 155.979 158.385 155.668 158.221 155.367C158.069 155.049 157.938 154.659 157.828 154.197C157.632 153.454 157.397 152.254 157.121 150.598C156.859 148.925 156.623 147.333 156.414 145.822C156.203 144.295 156.073 143.251 156.026 142.687ZM171.181 144.84C171.982 144.729 172.778 144.857 173.568 145.225C174.358 145.594 174.802 146.125 174.898 146.82C174.992 147.5 174.789 148.206 174.29 148.937C173.789 149.654 173.056 150.148 172.093 150.42C171.678 150.539 171.047 150.657 170.201 150.774C170.545 152.036 170.987 152.837 171.527 153.178C171.701 153.323 171.917 153.378 172.174 153.343C173.111 153.213 173.856 152.81 174.409 152.132C174.96 151.44 175.371 151.075 175.643 151.037C175.764 151.021 175.961 151.109 176.235 151.302C176.508 151.495 176.658 151.69 176.685 151.886C176.74 152.279 176.342 152.912 175.492 153.784C175.117 154.19 174.644 154.556 174.073 154.882C173.515 155.19 172.98 155.38 172.466 155.451C171.151 155.633 170.067 154.921 169.213 153.314C168.675 152.325 168.32 151.204 168.146 149.95C167.973 148.696 168.118 147.574 168.581 146.586C169.045 145.598 169.912 145.016 171.181 144.84ZM171.511 146.388C170.937 146.468 170.491 146.861 170.173 147.567C170.053 147.815 169.981 148.348 169.955 149.168C172.071 148.875 173.057 148.207 172.912 147.164C172.825 146.53 172.358 146.271 171.511 146.388ZM179.697 154.38C179.304 154.435 179.04 154.248 178.904 153.82C178.481 150.768 177.923 148.073 177.23 145.735C177.188 145.433 177.256 145.146 177.434 144.875C177.627 144.602 177.86 144.446 178.132 144.409C178.419 144.369 178.653 144.498 178.833 144.797C179.289 143.979 179.986 143.505 180.923 143.375C182.117 143.21 183.118 143.657 183.927 144.715C184.532 143.523 185.454 142.841 186.693 142.669C187.947 142.495 188.953 142.864 189.711 143.776C190.205 144.339 190.605 145.115 190.912 146.105C191.218 147.094 191.5 148.518 191.757 150.377C191.858 151.103 191.861 151.68 191.766 152.109C191.669 152.523 191.379 152.763 190.895 152.83C190.503 152.884 190.272 152.662 190.202 152.163L189.878 149.32C189.407 145.92 188.288 144.343 186.52 144.587C185.961 144.665 185.595 144.916 185.423 145.34C185.231 145.844 185.148 146.356 185.173 146.876C185.238 147.791 185.322 148.619 185.425 149.36L185.88 152.646C185.913 152.888 185.821 153.109 185.602 153.309C185.383 153.508 185.145 153.626 184.888 153.662C184.556 153.708 184.314 153.518 184.163 153.092L183.581 148.39C183.351 146.728 182.928 145.732 182.312 145.401C182.013 145.242 181.584 145.201 181.025 145.279C180.481 145.354 180.101 145.615 179.885 146.06C179.685 146.504 179.648 147.179 179.773 148.086L180.493 152.283C180.673 153.583 180.408 154.282 179.697 154.38ZM197.645 141.984C197.67 141.719 197.769 141.49 197.943 141.296C198.114 141.088 198.298 140.97 198.494 140.943C198.706 140.913 198.87 140.929 198.986 140.99C199.117 141.049 199.195 141.107 199.218 141.166C199.257 141.222 199.302 141.324 199.353 141.471C199.425 142.662 199.528 143.734 199.659 144.686C199.789 145.623 200.052 146.687 200.448 147.88C200.842 149.058 201.175 149.628 201.447 149.59C201.855 149.533 202.338 149.236 202.895 148.696C203.467 148.155 203.854 147.616 204.057 147.08C203.574 144.929 203.225 143.075 203.01 141.519C202.966 141.201 203.026 140.916 203.191 140.662C203.372 140.406 203.605 140.258 203.892 140.218C204.361 140.153 204.639 140.438 204.727 141.073C204.876 142.146 205.172 143.73 205.616 145.825C206.075 147.917 206.428 149.239 206.673 149.791C206.72 149.907 206.755 150.049 206.778 150.215C206.799 150.366 206.713 150.524 206.52 150.69C206.345 150.868 206.091 150.98 205.758 151.026C205.441 151.07 205.204 150.918 205.048 150.57C204.976 150.272 204.838 149.829 204.633 149.241C203.728 150.491 202.739 151.19 201.666 151.339C201.168 151.408 200.696 151.28 200.25 150.957C199.805 150.634 199.424 150.163 199.108 149.544C198.541 148.344 198.181 147.193 198.029 146.09C197.876 144.986 197.748 143.618 197.645 141.984ZM209.405 150.267C209.012 150.321 208.748 150.135 208.611 149.707C208.189 146.654 207.631 143.959 206.937 141.622C206.896 141.32 206.964 141.033 207.142 140.762C207.335 140.489 207.568 140.333 207.84 140.296C208.127 140.256 208.36 140.385 208.54 140.684C208.997 139.866 209.694 139.392 210.631 139.262C211.824 139.097 212.826 139.544 213.635 140.602C214.24 139.409 215.162 138.727 216.401 138.556C217.655 138.382 218.661 138.751 219.419 139.663C219.913 140.226 220.313 141.002 220.619 141.991C220.926 142.981 221.208 144.405 221.465 146.264C221.565 146.989 221.568 147.566 221.474 147.995C221.377 148.409 221.087 148.65 220.603 148.717C220.21 148.771 219.979 148.549 219.91 148.05L219.586 145.207C219.115 141.807 217.996 140.229 216.228 140.474C215.668 140.552 215.303 140.802 215.13 141.227C214.938 141.731 214.855 142.243 214.881 142.763C214.946 143.678 215.03 144.506 215.132 145.246L215.588 148.533C215.621 148.775 215.528 148.996 215.31 149.195C215.091 149.395 214.853 149.513 214.596 149.548C214.264 149.594 214.022 149.405 213.87 148.979L213.289 144.277C213.059 142.615 212.636 141.618 212.02 141.288C211.721 141.129 211.292 141.088 210.732 141.166C210.188 141.241 209.809 141.501 209.593 141.947C209.393 142.391 209.355 143.066 209.481 143.973L210.201 148.17C210.38 149.47 210.115 150.169 209.405 150.267ZM232.32 147.048C231.806 147.119 231.306 147.011 230.82 146.724C230.82 146.724 230.71 146.655 230.49 146.516L231.432 153.316C231.383 153.631 231.259 153.903 231.059 154.13C230.862 154.373 230.635 154.513 230.378 154.548C229.985 154.603 229.752 154.365 229.679 153.836L227.491 138.037C227.527 137.631 227.595 137.337 227.692 137.154C227.805 136.969 227.998 136.858 228.27 136.82C228.557 136.78 228.748 136.823 228.842 136.949C228.95 137.057 229.104 137.39 229.304 137.947C229.323 137.637 229.526 137.324 229.913 137.008C230.301 136.693 230.85 136.486 231.56 136.387C233.101 136.174 234.274 136.581 235.079 137.61C235.884 138.638 236.392 139.915 236.603 141.442C236.812 142.953 236.533 144.216 235.765 145.231C235.01 146.229 233.861 146.835 232.32 147.048ZM229.655 140.486L230.239 144.702C230.336 144.735 230.452 144.796 230.588 144.885C231.081 145.217 231.584 145.348 232.098 145.277C234.183 144.988 235.077 143.771 234.78 141.625C234.527 139.796 233.899 138.705 232.895 138.351C232.472 138.194 231.974 138.155 231.4 138.235C230.851 138.388 230.41 138.703 230.075 139.181C229.739 139.643 229.599 140.078 229.655 140.486ZM243.296 134.763C243.961 134.67 244.372 135.191 244.529 136.325C244.546 136.445 244.563 136.574 244.582 136.71L244.757 138.303C244.811 138.804 244.871 139.296 244.938 139.779L245.987 144.855C246.04 145.233 245.68 145.475 244.91 145.582C244.864 145.588 244.751 145.604 244.57 145.629C244.403 145.652 244.273 145.601 244.179 145.475C244.099 145.348 244.069 145.183 244.087 144.98C244.12 144.775 244.075 144.558 243.951 144.329C243.358 145.166 242.487 145.663 241.339 145.822C239.208 146.117 237.915 144.618 237.458 141.323C237.205 139.495 237.354 138.065 237.904 137.034C238.47 136.001 239.395 135.395 240.679 135.217C241.284 135.134 241.903 135.156 242.537 135.284C242.695 134.984 242.949 134.811 243.296 134.763ZM241.224 137.152C240.363 137.271 239.755 137.609 239.401 138.167C239.047 138.724 238.962 139.667 239.146 140.997C239.456 143.234 240.215 144.268 241.424 144.101C241.741 144.057 242.069 143.865 242.407 143.526C242.76 143.184 242.987 142.822 243.088 142.438C243.262 141.582 243.282 140.671 243.149 139.704C243.015 138.737 242.796 138.051 242.494 137.646C242.207 137.239 241.783 137.074 241.224 137.152ZM249.78 141.281L250.126 143.612C250.164 143.884 250.07 144.152 249.844 144.414C249.634 144.674 249.408 144.821 249.166 144.854C248.819 144.902 248.562 144.661 248.396 144.129C248.364 144.01 248.151 142.916 247.756 140.845C247.36 138.759 246.927 137.14 246.46 135.988C246.244 135.432 246.129 135.102 246.115 134.996C246.046 134.497 246.313 134.206 246.918 134.122C247.175 134.087 247.392 134.157 247.571 134.332C247.749 134.508 247.868 134.699 247.927 134.907C248 135.097 248.075 135.364 248.154 135.707C248.232 136.051 248.285 136.266 248.313 136.355C248.525 135.556 248.923 134.923 249.505 134.457C250.088 133.992 250.757 133.706 251.512 133.602C252.752 133.43 253.415 133.662 253.503 134.296C253.547 134.614 253.469 134.886 253.27 135.114C253.083 135.325 252.846 135.45 252.559 135.49C251.275 135.668 250.425 136.201 250.009 137.091C249.593 137.98 249.517 139.377 249.78 141.281ZM264.107 149.185C264.103 149.155 264.098 149.117 264.091 149.072L263.686 145.478C263.579 144.707 263.438 143.91 263.263 143.087L262.882 141.338C262.519 142.389 261.529 143.027 259.912 143.251C259.142 143.358 258.389 143.208 257.655 142.801C256.25 141.994 255.412 140.616 255.142 138.667C254.91 136.99 255.106 135.622 255.73 134.566C256.369 133.507 257.398 132.879 258.819 132.683C260.239 132.486 261.342 132.718 262.127 133.38C262.666 133.829 263.074 134.327 263.35 134.874C263.775 135.831 264.087 136.974 264.287 138.302L264.403 139.141L265.234 143.808C265.314 144.274 265.411 144.923 265.526 145.754L265.913 148.542C265.892 148.838 265.775 149.108 265.563 149.353C265.35 149.598 265.146 149.734 264.949 149.761C264.451 149.831 264.17 149.638 264.107 149.185ZM258.387 134.568C257.737 134.657 257.289 134.981 257.043 135.539C256.796 136.097 256.753 136.95 256.912 138.099C257.071 139.247 257.448 140.134 258.043 140.76C258.636 141.371 259.257 141.632 259.907 141.542C260.557 141.452 261.099 141.138 261.532 140.601C261.981 140.061 262.282 139.342 262.435 138.443C262.138 136.851 261.679 135.767 261.061 135.191C260.442 134.614 259.55 134.406 258.387 134.568ZM265.14 132.639C265.165 132.374 265.264 132.144 265.438 131.951C265.609 131.742 265.793 131.625 265.99 131.597C266.201 131.568 266.365 131.584 266.481 131.645C266.613 131.704 266.69 131.762 266.714 131.82C266.752 131.877 266.797 131.978 266.848 132.125C266.921 133.317 267.023 134.388 267.155 135.34C267.284 136.277 267.547 137.342 267.944 138.535C268.338 139.712 268.671 140.282 268.943 140.245C269.351 140.188 269.833 139.89 270.39 139.351C270.962 138.81 271.349 138.271 271.552 137.735C271.07 135.584 270.721 133.73 270.505 132.173C270.461 131.856 270.522 131.57 270.687 131.317C270.867 131.061 271.101 130.913 271.388 130.873C271.856 130.808 272.134 131.093 272.222 131.728C272.371 132.801 272.667 134.385 273.111 136.479C273.57 138.572 273.923 139.894 274.169 140.445C274.216 140.562 274.251 140.703 274.274 140.87C274.295 141.021 274.209 141.179 274.016 141.344C273.84 141.523 273.586 141.635 273.254 141.681C272.937 141.725 272.7 141.573 272.544 141.225C272.472 140.927 272.333 140.484 272.129 139.896C271.224 141.146 270.235 141.845 269.162 141.993C268.663 142.062 268.191 141.935 267.746 141.612C267.301 141.288 266.92 140.817 266.603 140.199C266.036 138.999 265.677 137.848 265.524 136.744C265.371 135.641 265.243 134.273 265.14 132.639ZM277.416 130.131C278.217 130.02 279.013 130.148 279.803 130.516C280.593 130.884 281.037 131.416 281.133 132.111C281.227 132.791 281.024 133.497 280.525 134.228C280.023 134.945 279.291 135.439 278.328 135.711C277.913 135.83 277.282 135.948 276.436 136.065C276.78 137.327 277.222 138.128 277.762 138.469C277.936 138.614 278.152 138.669 278.409 138.634C279.346 138.504 280.091 138.1 280.644 137.423C281.195 136.731 281.606 136.366 281.878 136.328C281.999 136.311 282.196 136.4 282.469 136.593C282.743 136.786 282.893 136.981 282.92 137.177C282.974 137.57 282.577 138.203 281.727 139.075C281.352 139.481 280.879 139.847 280.308 140.173C279.75 140.481 279.214 140.671 278.701 140.742C277.386 140.924 276.302 140.212 275.448 138.605C274.91 137.616 274.555 136.495 274.381 135.241C274.207 133.986 274.353 132.865 274.816 131.877C275.28 130.889 276.147 130.306 277.416 130.131ZM277.746 131.679C277.172 131.759 276.726 132.152 276.408 132.858C276.288 133.105 276.216 133.639 276.19 134.459C278.306 134.166 279.292 133.498 279.147 132.455C279.06 131.821 278.592 131.562 277.746 131.679Z" fill="black"/>
<path d="M295.782 122.094C295.782 124.926 295.782 127.758 295.782 130.59C295.782 132.675 295.592 134.905 296.26 136.909" stroke="black" stroke-width="2" stroke-linecap="round"/>
<path d="M300.8 122.094V137.626" stroke="black" stroke-width="2" stroke-linecap="round"/>
<path d="M295.543 120.899C293.138 120.899 290.786 121.377 288.388 121.377C286.007 121.377 285.268 119.768 285.268 117.554C285.268 116.885 284.953 115.495 285.64 115.058C286.204 114.699 287.364 114.925 288.003 114.925C288.491 114.925 289.07 115.479 289.45 115.775C290.229 116.38 288.509 115.901 288.268 115.748C285.641 114.076 283.623 110.018 284.365 106.8C284.984 104.121 291.35 102.755 293.154 104.65C293.963 105.5 294.594 106.737 294.933 107.849C295.145 108.545 295.304 110.727 295.304 110C295.304 107.444 295.368 105.24 296.99 103.11C297.891 101.928 300.333 100.837 301.57 102.074C302.851 103.355 303.61 107.906 302.128 109.177C301.492 109.722 301.997 108.78 302.42 108.526C304.851 107.068 308.034 106.998 310.784 107.039C313.775 107.085 314.958 109.902 314.315 112.535C313.676 115.15 310.187 115.982 307.89 116.107C307.406 116.133 306.406 116.306 305.978 116C305.774 115.855 306.36 115.882 306.429 115.907C308.739 116.747 310.12 119.92 310.12 122.12C310.12 125.077 308.315 128.212 305.102 128.307C302.994 128.369 301.346 126.019 300.323 124.483" stroke="black" stroke-width="2" stroke-linecap="round"/>
<path d="M77.1352 139.538C77.1352 138.05 76.6391 135.859 78.6752 135.489C80.2533 135.202 82.2747 135.414 83.6402 136.246C85.6375 137.461 85.1271 140.457 84.6624 142.419C84.0452 145.025 82.8081 147.862 81.7285 150.291C81.4303 150.962 81.6011 151.126 80.7063 150.623C79.5063 149.948 78.2387 149.26 77.1352 148.432C74.4426 146.413 68.9721 143.633 69.7408 139.405C70.0655 137.619 72.4462 138.055 73.7367 138.104C74.4389 138.131 75.3762 139.265 75.9271 139.644C77.2 140.519 77.701 141.509 78.569 142.883" stroke="black" stroke-width="2" stroke-linecap="round"/>
<path d="M123.972 165.502C126.771 165.502 129.433 165.338 132.162 164.646C133.565 164.291 134.913 163.775 136.319 163.424C137.703 163.078 139.1 162.836 140.482 162.514C144.83 161.499 149.394 160.982 153.848 160.728C155.683 160.623 157.541 160.445 159.363 160.184C160.23 160.06 162.867 160.123 161.991 160.123" stroke="black" stroke-width="2" stroke-linecap="round"/>
<path d="M234.262 125.004C232.447 125.004 230.105 124.537 228.599 125.742C225.948 127.863 224.138 132.126 223.875 135.404C223.691 137.704 223.153 140.523 223.983 142.744C224.839 145.036 226.307 146.867 227.874 148.702C231.974 153.502 237.072 155.878 243.32 156.512C252.037 157.397 260.367 153.526 267.971 149.695C274.453 146.43 281.216 143.433 285.321 137.148C287.478 133.848 288.361 131.251 285.496 128.278C283.188 125.884 280.501 123.912 277.471 122.535C271.809 119.961 265.382 118.252 259.208 117.543C255.276 117.092 250.805 116.577 246.876 117.194C243.55 117.716 239.081 119.644 236.919 122.347" stroke="black" stroke-width="2" stroke-linecap="round"/>
<path d="M148.695 174.644C148.938 177.801 153.01 180.258 155.593 181.481C164.181 185.545 173.036 185.426 182.395 185.31C192.766 185.181 202.226 181.798 211.051 176.558C212.475 175.712 217.888 173.563 217.888 171.362" stroke="black" stroke-width="2" stroke-linecap="round"/>
<path d="M212.965 169.995C215.184 169.995 217.402 169.995 219.62 169.995C220.154 169.995 222.485 169.542 221.854 170.678C220.582 172.968 220.671 175.915 219.529 178.199" stroke="black" stroke-width="2" stroke-linecap="round"/>
<rect x="59.8511" y="43.0705" width="309.315" height="163.319" transform="rotate(12.7119 59.8511 43.0705)" fill="#22C7FF" stroke="black" stroke-width="2"/>
<circle cx="192.375" cy="157.634" r="32.3601" transform="rotate(11.158 192.375 157.634)" fill="#22C7FF" stroke="white" stroke-width="4.13108"/>
<circle cx="191.603" cy="158.184" r="22.7209" transform="rotate(11.158 191.603 158.184)" fill="white"/>
<g filter="url(#filter1_d_383_692)">
<circle cx="191.566" cy="158.176" r="15.1473" transform="rotate(11.158 191.566 158.176)" stroke="#22C7FF" stroke-width="4.13108" shape-rendering="crispEdges"/>
</g>
<path d="M59.4481 197.201C56.2195 196.49 53.5473 194.895 51.8255 192.939C50.1032 190.983 49.3753 188.73 49.8409 186.617L75.573 69.849C76.0387 67.736 77.6463 65.9973 80.0313 64.9463C82.4156 63.8956 85.5107 63.5716 88.7393 64.2831L326.114 116.593C329.342 117.305 332.014 118.9 333.736 120.855C335.458 122.811 336.186 125.065 335.721 127.178L309.989 243.945C309.523 246.058 307.915 247.797 305.53 248.848C303.146 249.899 300.051 250.223 296.822 249.511L59.4481 197.201Z" stroke="white" stroke-width="2"/>
<defs>
<filter id="filter0_d_383_692" x="19" y="68.1196" width="336.816" height="209.282" filterUnits="userSpaceOnUse" color-interpolation-filters="sRGB">
<feFlood flood-opacity="0" result="BackgroundImageFix"/>
<feColorMatrix in="SourceAlpha" type="matrix" values="0 0 0 0 0 0 0 0 0 0 0 0 0 0 0 0 0 0 127 0" result="hardAlpha"/>
<feOffset dy="4"/>
<feGaussianBlur stdDeviation="2"/>
<feComposite in2="hardAlpha" operator="out"/>
<feColorMatrix type="matrix" values="0 0 0 0 0 0 0 0 0 0 0 0 0 0 0 0 0 0 0.25 0"/>
<feBlend mode="normal" in2="BackgroundImageFix" result="effect1_dropShadow_383_692"/>
<feBlend mode="normal" in="SourceGraphic" in2="effect1_dropShadow_383_692" result="shape"/>
</filter>
<filter id="filter1_d_383_692" x="160.58" y="127.19" width="61.9726" height="61.9726" filterUnits="userSpaceOnUse" color-interpolation-filters="sRGB">
<feFlood flood-opacity="0" result="BackgroundImageFix"/>
<feColorMatrix in="SourceAlpha" type="matrix" values="0 0 0 0 0 0 0 0 0 0 0 0 0 0 0 0 0 0 127 0" result="hardAlpha"/>
<feOffset/>
<feGaussianBlur stdDeviation="6.88513"/>
<feComposite in2="hardAlpha" operator="out"/>
<feColorMatrix type="matrix" values="0 0 0 0 0 0 0 0 0 0 0 0 0 0 0 0 0 0 0.25 0"/>
<feBlend mode="normal" in2="BackgroundImageFix" result="effect1_dropShadow_383_692"/>
<feBlend mode="normal" in="SourceGraphic" in2="effect1_dropShadow_383_692" result="shape"/>
</filter>
</defs>
</svg>
