<svg width="64" height="119" viewBox="0 0 64 119" fill="none" xmlns="http://www.w3.org/2000/svg">
<rect x="15.9947" y="1.91935" width="31.9892" height="83.172" rx="15.9946" fill="#D9D9D9" stroke="#777070" stroke-width="3.83871"/>
<circle cx="31.9892" cy="87.0107" r="30.0699" fill="#D9D9D9" stroke="#777070" stroke-width="3.83871"/>
<circle cx="31.3835" cy="87.6505" r="21.1129" fill="#D1CDCD"/>
<g filter="url(#filter0_d_111_593)">
<rect x="21.7527" y="19.1936" width="17.914" height="5.11828" fill="#D9D9D9"/>
</g>
<path d="M31.7435 66.6661V71.618" stroke="#B6B6B6" stroke-width="1.27957" stroke-linecap="round"/>
<path d="M34.817 71.8742C34.817 70.8582 34.8923 69.9005 35.2439 68.9335C35.3273 68.7041 35.4336 68.4571 35.4953 68.241C35.5524 68.0412 35.3876 67.6189 35.5854 67.52" stroke="#B6B6B6" stroke-width="1.27957" stroke-linecap="round"/>
<path d="M38.1469 72.8133C38.1469 72.3113 38.4019 71.8898 38.6591 71.4662C38.8862 71.0922 39.0508 70.5797 39.3421 70.252C39.7002 69.8491 39.882 69.4284 40.1105 68.9713" stroke="#B6B6B6" stroke-width="1.27957" stroke-linecap="round"/>
<path d="M41.2203 74.5209C41.8487 73.8925 42.4719 73.2693 43.0986 72.6426C43.4501 72.2912 44.1352 71.8381 44.2939 71.3619" stroke="#B6B6B6" stroke-width="1.27957" stroke-linecap="round"/>
<path d="M43.4403 76.6554C43.7593 76.3944 44.4224 76.2938 44.6546 75.9724C44.8134 75.7525 45.5751 75.5127 45.8119 75.4127C46.0506 75.3119 46.4685 75.2573 46.6657 75.0996C46.7946 74.9965 46.9475 74.8318 47.1115 74.7771" stroke="#B6B6B6" stroke-width="1.27957" stroke-linecap="round"/>
<path d="M45.66 79.9849C46.5422 79.9849 47.2571 79.9402 48.098 79.6434C48.7606 79.4095 49.4911 79.1793 50.0996 78.875" stroke="#B6B6B6" stroke-width="1.27957" stroke-linecap="round"/>
<path d="M46.8552 82.8878C47.8556 82.8878 48.849 82.9129 49.8434 82.8024C50.4545 82.7345 51.0234 82.5463 51.6363 82.5463" stroke="#B6B6B6" stroke-width="1.27957" stroke-linecap="round"/>
<path d="M47.453 85.9614C48.454 85.9614 49.4647 85.888 50.4412 86.1321C51.032 86.2798 51.5497 86.3029 52.1487 86.3029" stroke="#B6B6B6" stroke-width="1.27957" stroke-linecap="round"/>
<path d="M47.2429 88.8629C48.6936 88.8629 50.1602 89.0986 51.5642 89.0986" stroke="#B6B6B6" stroke-width="1.27957" stroke-linecap="round"/>
<path d="M46.6927 91.7701C47.0483 91.7701 47.4493 91.676 47.7578 91.8487C48.3517 92.1813 49.0314 92.4169 49.5998 92.7959C50.0139 93.0719 50.8155 93.4987 51.3283 93.4987" stroke="#B6B6B6" stroke-width="1.27957" stroke-linecap="round"/>
<path d="M45.75 94.2843C46.2144 94.2843 46.6817 94.8574 47.0071 95.1486C47.2692 95.383 47.6404 95.6398 47.9499 95.7946C48.2647 95.9519 48.4962 96.2355 48.7531 96.4668C48.9576 96.6509 49.2383 96.7824 49.3642 97.0342" stroke="#B6B6B6" stroke-width="1.27957" stroke-linecap="round"/>
<path d="M43.4716 97.3485C43.9243 97.3988 44.641 98.1693 44.96 98.4485C45.2438 98.6968 45.5902 98.997 45.9072 99.1731C46.4691 99.4852 46.7267 100.293 47.3215 100.491" stroke="#B6B6B6" stroke-width="1.27957" stroke-linecap="round"/>
<path d="M40.9572 99.4698C40.9572 99.8309 41.2752 100.036 41.4286 100.343C41.6322 100.75 41.8055 101.192 42.0964 101.548C42.338 101.843 42.6738 102.264 42.7599 102.652C42.8186 102.916 43.059 103.344 43.2531 103.538C43.3591 103.644 43.4465 103.723 43.5325 103.809C43.6338 103.91 43.5495 104.105 43.7071 104.184" stroke="#B6B6B6" stroke-width="1.27957" stroke-linecap="round"/>
<path d="M37.8931 101.277C37.8931 101.996 38.1693 102.526 38.4431 103.18C38.6442 103.661 38.8017 104.186 39.0105 104.655C39.1268 104.917 39.3703 105.254 39.3859 105.52C39.402 105.793 39.4507 106.186 39.543 106.462" stroke="#B6B6B6" stroke-width="1.27957" stroke-linecap="round"/>
<path d="M34.5931 102.298C34.5931 103.375 34.5228 104.437 34.8114 105.476C35.0022 106.163 35.3003 106.929 35.3003 107.641" stroke="#B6B6B6" stroke-width="1.27957" stroke-linecap="round"/>
<path d="M31.1361 102.534C31.1361 104.507 31.3718 106.473 31.3718 108.427" stroke="#B6B6B6" stroke-width="1.27957" stroke-linecap="round"/>
<path d="M27.3648 101.827C27.3648 102.922 26.8263 103.839 26.483 104.83C26.3586 105.19 26.4641 105.776 26.1862 106.07C25.8753 106.399 25.8719 106.74 25.8719 107.17" stroke="#B6B6B6" stroke-width="1.27957" stroke-linecap="round"/>
<path d="M23.9863 101.198V101.277" stroke="#B6B6B6" stroke-width="1.27957" stroke-linecap="round"/>
<path d="M24.1434 100.727C24.1434 100.554 24.1228 101.087 24.0299 101.233C23.7634 101.652 23.5798 102.125 23.2966 102.534C23.0132 102.943 22.921 103.501 22.6506 103.931C22.4522 104.246 22.2005 104.608 22.1792 104.97C22.1612 105.275 21.8044 105.544 21.7078 105.834" stroke="#B6B6B6" stroke-width="1.27957" stroke-linecap="round"/>
<path d="M18.4078 104.341C18.4078 103.67 18.909 103.193 19.2546 102.63C19.4967 102.236 19.803 101.898 20.0578 101.53C20.3507 101.107 20.6313 100.715 20.861 100.255C21.0274 99.9226 21.3458 99.6984 21.5506 99.3912" stroke="#B6B6B6" stroke-width="1.27957" stroke-linecap="round"/>
<path d="M14.1652 100.02C14.7365 100.02 15.1842 99.499 15.658 99.2343C15.9438 99.0746 16.1354 98.6467 16.4044 98.5271C16.629 98.4273 16.7556 98.1441 16.9544 98.0557C17.3711 97.8705 17.6116 97.3911 17.9801 97.1565C18.256 96.981 18.9541 96.4058 19.2722 96.4058" stroke="#B6B6B6" stroke-width="1.27957" stroke-linecap="round"/>
<path d="M12.3579 96.72C13.2371 96.72 13.9335 96.3683 14.6975 95.9168C15.0537 95.7064 15.4725 95.3553 15.8935 95.3057C16.3087 95.2569 17.5025 94.7591 17.7006 94.3629" stroke="#B6B6B6" stroke-width="1.27957" stroke-linecap="round"/>
<path d="M10.8651 93.1058C11.4778 93.1058 11.771 92.6704 12.2794 92.4162C12.8735 92.1191 13.5261 91.9677 14.1301 91.6916C14.5649 91.4928 15.0017 91.3582 15.4221 91.159C15.7714 90.9936 16.1581 90.7915 16.5221 90.6702" stroke="#B6B6B6" stroke-width="1.27957" stroke-linecap="round"/>
<path d="M10.2366 89.6486C11.5999 89.6486 12.9074 89.652 14.2436 89.3737C14.9724 89.2218 15.721 88.7058 16.4436 88.7058" stroke="#B6B6B6" stroke-width="1.27957" stroke-linecap="round"/>
<path d="M10.3152 85.4846C11.0572 85.4846 11.7993 85.4846 12.5413 85.4846C13.0193 85.4846 13.6213 85.5745 14.0865 85.4453C14.729 85.2668 15.5562 85.5523 16.1293 85.1703" stroke="#B6B6B6" stroke-width="1.27957" stroke-linecap="round"/>
<path d="M11.3365 80.8489C11.8342 80.8489 12.3318 80.8489 12.8294 80.8489C13.3688 80.8489 13.8994 81.006 14.44 81.006C14.8777 81.006 15.2981 81.3203 15.7364 81.3203C15.8588 81.3203 16.6957 81.5103 16.6007 81.3203" stroke="#B6B6B6" stroke-width="1.27957" stroke-linecap="round"/>
<path d="M12.9078 77.3134C13.9818 77.3134 14.9687 77.367 15.9328 77.9026C16.1004 77.9958 18.0149 78.7357 18.0149 78.7276" stroke="#B6B6B6" stroke-width="1.27957" stroke-linecap="round"/>
<path d="M15.5007 73.6991C16.0925 73.6991 16.8386 74.4741 17.3078 74.8165C17.6605 75.0739 18.0067 75.3766 18.3292 75.6633C18.564 75.872 18.8791 75.9251 19.1149 76.1348C19.2319 76.2387 19.7583 76.5325 19.5078 76.449" stroke="#B6B6B6" stroke-width="1.27957" stroke-linecap="round"/>
<path d="M18.0149 71.4991C18.0149 71.7888 18.4041 72.2026 18.6085 72.4071C18.911 72.7095 19.3183 73.0911 19.5252 73.4634C19.8501 74.0482 20.4859 74.42 20.8434 74.9562" stroke="#B6B6B6" stroke-width="1.27957" stroke-linecap="round"/>
<path d="M19.9792 70.1635C20.3828 70.2845 20.8533 71.0871 21.1622 71.3856C21.5552 71.7656 22.146 72.242 22.4149 72.7126C22.5427 72.9362 22.8166 73.3499 23.0435 73.4634" stroke="#B6B6B6" stroke-width="1.27957" stroke-linecap="round"/>
<path d="M23.3577 68.2778C23.3577 69.7352 24.6141 71.0265 25.2433 72.2849" stroke="#B6B6B6" stroke-width="1.27957" stroke-linecap="round"/>
<path d="M26.9719 67.1779C26.9719 67.789 26.9187 68.2846 27.1683 68.8671C27.33 69.2443 27.4592 69.6614 27.6005 70.05C27.7026 70.3308 27.9681 71.133 28.229 71.2635" stroke="#B6B6B6" stroke-width="1.27957" stroke-linecap="round"/>
<g filter="url(#filter1_d_111_593)">
<circle cx="31.3495" cy="87.6505" r="15.9946" fill="#E0E0E0"/>
<circle cx="31.3495" cy="87.6505" r="14.0753" stroke="#777070" stroke-width="3.83871"/>
</g>
<defs>
<filter id="filter0_d_111_593" x="16.6344" y="14.0753" width="28.1505" height="15.3548" filterUnits="userSpaceOnUse" color-interpolation-filters="sRGB">
<feFlood flood-opacity="0" result="BackgroundImageFix"/>
<feColorMatrix in="SourceAlpha" type="matrix" values="0 0 0 0 0 0 0 0 0 0 0 0 0 0 0 0 0 0 127 0" result="hardAlpha"/>
<feOffset/>
<feGaussianBlur stdDeviation="2.55914"/>
<feComposite in2="hardAlpha" operator="out"/>
<feColorMatrix type="matrix" values="0 0 0 0 0 0 0 0 0 0 0 0 0 0 0 0 0 0 0.25 0"/>
<feBlend mode="normal" in2="BackgroundImageFix" result="effect1_dropShadow_111_593"/>
<feBlend mode="normal" in="SourceGraphic" in2="effect1_dropShadow_111_593" result="shape"/>
</filter>
<filter id="filter1_d_111_593" x="2.55916" y="58.8602" width="57.5807" height="57.5807" filterUnits="userSpaceOnUse" color-interpolation-filters="sRGB">
<feFlood flood-opacity="0" result="BackgroundImageFix"/>
<feColorMatrix in="SourceAlpha" type="matrix" values="0 0 0 0 0 0 0 0 0 0 0 0 0 0 0 0 0 0 127 0" result="hardAlpha"/>
<feOffset/>
<feGaussianBlur stdDeviation="6.39785"/>
<feComposite in2="hardAlpha" operator="out"/>
<feColorMatrix type="matrix" values="0 0 0 0 0 0 0 0 0 0 0 0 0 0 0 0 0 0 0.25 0"/>
<feBlend mode="normal" in2="BackgroundImageFix" result="effect1_dropShadow_111_593"/>
<feBlend mode="normal" in="SourceGraphic" in2="effect1_dropShadow_111_593" result="shape"/>
</filter>
</defs>
</svg>
