<svg width="326" height="424" viewBox="0 0 326 424" fill="none" xmlns="http://www.w3.org/2000/svg">
<rect x="0.971542" y="0.971542" width="323.124" height="422.057" fill="white" stroke="black" stroke-width="1.94308"/>
<path d="M2.005 46.2946H322.788" stroke="#22C7FF" stroke-opacity="0.5" stroke-width="1.94308"/>
<path d="M2.00513 65.1296H322.788" stroke="#22C7FF" stroke-opacity="0.5" stroke-width="1.94308"/>
<path d="M2.00513 83.9646H322.788" stroke="#22C7FF" stroke-opacity="0.5" stroke-width="1.94308"/>
<path d="M2.00513 102.8H322.788" stroke="#22C7FF" stroke-opacity="0.5" stroke-width="1.94308"/>
<path d="M2.00513 121.635H322.788" stroke="#22C7FF" stroke-opacity="0.5" stroke-width="1.94308"/>
<path d="M2.00513 140.47H322.788" stroke="#22C7FF" stroke-opacity="0.5" stroke-width="1.94308"/>
<path d="M2.00513 159.305H322.788" stroke="#22C7FF" stroke-opacity="0.5" stroke-width="1.94308"/>
<path d="M2.00513 178.14H322.788" stroke="#22C7FF" stroke-opacity="0.5" stroke-width="1.94308"/>
<path d="M2.00513 196.974H322.788" stroke="#22C7FF" stroke-opacity="0.5" stroke-width="1.94308"/>
<path d="M2.00513 215.81H322.788" stroke="#22C7FF" stroke-opacity="0.5" stroke-width="1.94308"/>
<path d="M2.00513 234.645H322.788" stroke="#22C7FF" stroke-opacity="0.5" stroke-width="1.94308"/>
<path d="M2.00513 253.479H322.788" stroke="#22C7FF" stroke-opacity="0.5" stroke-width="1.94308"/>
<path d="M2.00513 272.314H322.788" stroke="#22C7FF" stroke-opacity="0.5" stroke-width="1.94308"/>
<path d="M2.00513 291.15H322.788" stroke="#22C7FF" stroke-opacity="0.5" stroke-width="1.94308"/>
<path d="M2.00513 309.984H322.788" stroke="#22C7FF" stroke-opacity="0.5" stroke-width="1.94308"/>
<path d="M2.00513 328.819H322.788" stroke="#22C7FF" stroke-opacity="0.5" stroke-width="1.94308"/>
<path d="M2.00513 347.654H322.788" stroke="#22C7FF" stroke-opacity="0.5" stroke-width="1.94308"/>
<path d="M2.00513 366.489H322.788" stroke="#22C7FF" stroke-opacity="0.5" stroke-width="1.94308"/>
<path d="M2.00513 385.324H322.788" stroke="#22C7FF" stroke-opacity="0.5" stroke-width="1.94308"/>
<path d="M2.00513 404.159H322.788" stroke="#22C7FF" stroke-opacity="0.5" stroke-width="1.94308"/>
<path d="M30.0735 0.734863V423.265" stroke="#FE2F62" stroke-opacity="0.5" stroke-width="1.94308"/>
</svg>
