<svg width="164" height="66" viewBox="0 0 164 66" fill="none" xmlns="http://www.w3.org/2000/svg">
<g filter="url(#filter0_d_111_632)">
<rect x="4" width="156" height="58" rx="11.8367" fill="#FAFAFA"/>
</g>
<rect x="10.5" y="6.5" width="144" height="46" rx="8.5" fill="#FFC251" stroke="black" stroke-width="3"/>
<path d="M48.48 25.1795H51.366V38H48.48V25.1795ZM62.936 38C62.1097 36.5323 61.2155 35.0832 60.2535 33.6525C59.2915 32.2218 58.2678 30.8713 57.1825 29.601V38H54.3335V25.1795H56.683C57.09 25.5865 57.5402 26.086 58.0335 26.678C58.5268 27.27 59.0263 27.9052 59.532 28.5835C60.05 29.2495 60.5618 29.9463 61.0675 30.674C61.5732 31.3893 62.048 32.08 62.492 32.746V25.1795H65.3595V38H62.936ZM68.3169 25.1795H71.2029V38H68.3169V25.1795ZM80.0164 38.259C77.9321 38.259 76.3411 37.6793 75.2434 36.52C74.1581 35.3607 73.6154 33.7142 73.6154 31.5805C73.6154 30.5198 73.7819 29.5763 74.1149 28.75C74.4479 27.9113 74.9043 27.2083 75.4839 26.641C76.0636 26.0613 76.7543 25.6235 77.5559 25.3275C78.3576 25.0315 79.2271 24.8835 80.1644 24.8835C80.7071 24.8835 81.2004 24.9267 81.6444 25.013C82.0884 25.087 82.4769 25.1795 82.8099 25.2905C83.1429 25.3892 83.4204 25.494 83.6424 25.605C83.8644 25.716 84.0248 25.8023 84.1234 25.864L83.2909 28.195C82.8963 27.9853 82.4338 27.8065 81.9034 27.6585C81.3854 27.5105 80.7934 27.4365 80.1274 27.4365C79.6834 27.4365 79.2456 27.5105 78.8139 27.6585C78.3946 27.8065 78.0184 28.047 77.6854 28.38C77.3648 28.7007 77.1058 29.12 76.9084 29.638C76.7111 30.156 76.6124 30.785 76.6124 31.525C76.6124 32.117 76.6741 32.672 76.7974 33.19C76.9331 33.6957 77.1428 34.1335 77.4264 34.5035C77.7224 34.8735 78.1048 35.1695 78.5734 35.3915C79.0421 35.6012 79.6094 35.706 80.2754 35.706C80.6948 35.706 81.0709 35.6813 81.4039 35.632C81.7369 35.5827 82.0329 35.5272 82.2919 35.4655C82.5509 35.3915 82.7791 35.3113 82.9764 35.225C83.1738 35.1387 83.3526 35.0585 83.5129 34.9845L84.3084 37.297C83.9014 37.5437 83.3279 37.7657 82.5879 37.963C81.8479 38.1603 80.9908 38.259 80.0164 38.259ZM86.1665 25.1795H89.0525V38H86.1665V25.1795ZM100.604 38C100.468 37.556 100.314 37.0997 100.142 36.631C99.9812 36.1623 99.8209 35.6937 99.6605 35.225H94.6655C94.5052 35.6937 94.3387 36.1623 94.166 36.631C94.0057 37.0997 93.8577 37.556 93.722 38H90.725C91.206 36.6187 91.6624 35.3422 92.094 34.1705C92.5257 32.9988 92.945 31.895 93.352 30.859C93.7714 29.823 94.1784 28.8425 94.573 27.9175C94.98 26.9802 95.3994 26.0675 95.831 25.1795H98.5875C99.0069 26.0675 99.42 26.9802 99.827 27.9175C100.234 28.8425 100.641 29.823 101.048 30.859C101.467 31.895 101.893 32.9988 102.325 34.1705C102.756 35.3422 103.213 36.6187 103.694 38H100.604ZM97.1445 28.084C97.0829 28.269 96.9904 28.5218 96.867 28.8425C96.7437 29.1632 96.6019 29.5332 96.4415 29.9525C96.2812 30.3718 96.1024 30.8343 95.905 31.34C95.72 31.8457 95.5289 32.376 95.3315 32.931H98.976C98.7787 32.376 98.5875 31.8457 98.4025 31.34C98.2175 30.8343 98.0387 30.3718 97.866 29.9525C97.7057 29.5332 97.5639 29.1632 97.4405 28.8425C97.3172 28.5218 97.2185 28.269 97.1445 28.084ZM109.109 25.0315C111.033 25.0315 112.506 25.3768 113.53 26.0675C114.554 26.7458 115.066 27.8065 115.066 29.2495C115.066 30.1498 114.856 30.8837 114.437 31.451C114.03 32.006 113.438 32.4438 112.661 32.7645C112.92 33.0852 113.191 33.4552 113.475 33.8745C113.758 34.2815 114.036 34.7132 114.307 35.1695C114.591 35.6135 114.862 36.0822 115.121 36.5755C115.38 37.0565 115.621 37.5313 115.843 38H112.605C112.371 37.5807 112.13 37.1552 111.884 36.7235C111.649 36.2918 111.403 35.8725 111.144 35.4655C110.897 35.0585 110.65 34.6762 110.404 34.3185C110.157 33.9485 109.91 33.6155 109.664 33.3195H108.239V38H105.353V25.3645C105.982 25.2412 106.63 25.1548 107.296 25.1055C107.974 25.0562 108.578 25.0315 109.109 25.0315ZM109.275 27.492C109.065 27.492 108.874 27.4982 108.702 27.5105C108.541 27.5228 108.387 27.5352 108.239 27.5475V31.0255H109.053C110.138 31.0255 110.915 30.8898 111.384 30.6185C111.853 30.3472 112.087 29.8847 112.087 29.231C112.087 28.602 111.847 28.158 111.366 27.899C110.897 27.6277 110.2 27.492 109.275 27.492Z" fill="black"/>
<defs>
<filter id="filter0_d_111_632" x="0" y="0" width="164" height="66" filterUnits="userSpaceOnUse" color-interpolation-filters="sRGB">
<feFlood flood-opacity="0" result="BackgroundImageFix"/>
<feColorMatrix in="SourceAlpha" type="matrix" values="0 0 0 0 0 0 0 0 0 0 0 0 0 0 0 0 0 0 127 0" result="hardAlpha"/>
<feOffset dy="4"/>
<feGaussianBlur stdDeviation="2"/>
<feComposite in2="hardAlpha" operator="out"/>
<feColorMatrix type="matrix" values="0 0 0 0 0 0 0 0 0 0 0 0 0 0 0 0 0 0 0.25 0"/>
<feBlend mode="normal" in2="BackgroundImageFix" result="effect1_dropShadow_111_632"/>
<feBlend mode="normal" in="SourceGraphic" in2="effect1_dropShadow_111_632" result="shape"/>
</filter>
</defs>
</svg>
